<svg width="22" height="22" viewBox="0 0 22 22" fill="none" xmlns="http://www.w3.org/2000/svg">
<mask id="path-1-outside-1_1_537" maskUnits="userSpaceOnUse" x="-0.65625" y="-0.662506" width="23" height="23" fill="black">
<rect fill="white" x="-0.65625" y="-0.662506" width="23" height="23"/>
<path d="M17.2906 10.4625H16.5V7.42499C16.5 7.22249 16.3625 7.08749 16.1562 7.08749H12.7188C12.5125 7.08749 12.375 7.22249 12.375 7.42499V10.4625H11.5844C11.2406 10.4625 10.8625 10.4962 10.5188 10.5975L11.3438 0.708744C11.3438 0.607494 11.3094 0.506244 11.2406 0.438744C11.1719 0.371244 11.1031 0.337494 11 0.337494H0.6875C0.584375 0.337494 0.515625 0.371244 0.446875 0.438744C0.378125 0.506244 0.34375 0.607494 0.34375 0.708744L1.71875 17.5837C1.71875 17.7525 1.89062 17.8875 2.0625 17.8875H2.68125V20.925C2.68125 21.1275 2.81875 21.2625 3.025 21.2625H8.6625C8.86875 21.2625 9.00625 21.1275 9.00625 20.925V20.4187C9.7625 20.9587 10.6562 21.2625 11.5844 21.2625H17.2906C19.6969 21.2625 21.6562 19.3387 21.6562 16.9762V14.7487C21.6562 12.3862 19.6969 10.4625 17.2906 10.4625ZM13.0625 7.76249H15.8125V10.4625H13.0625V7.76249ZM1.06562 1.01249H10.6219L9.83125 10.8337C9.79688 10.8337 9.79688 10.8675 9.7625 10.8675C9.72812 10.9012 9.65938 10.9012 9.625 10.935C9.55625 10.9687 9.52188 11.0025 9.4875 11.0025C9.45312 11.0362 9.38438 11.0362 9.35 11.07C9.31563 11.1037 9.24687 11.1375 9.2125 11.1712C9.17812 11.205 9.14375 11.2387 9.075 11.2387C9.04062 11.2725 8.97188 11.3062 8.9375 11.34C8.90312 11.3737 8.86875 11.4075 8.83438 11.4412C8.8 11.475 8.73125 11.5087 8.69687 11.5425C8.6625 11.5762 8.62813 11.61 8.59375 11.6437C8.55937 11.6775 8.525 11.7112 8.45625 11.7787C8.42188 11.8125 8.3875 11.8462 8.35312 11.88C8.31875 11.9137 8.28438 11.9812 8.25 12.015C8.21562 12.0487 8.18125 12.0825 8.14688 12.1162C8.1125 12.15 8.07812 12.2175 8.04375 12.2512C8.00938 12.285 7.975 12.3187 7.975 12.3525C7.94063 12.3862 7.90625 12.4537 7.87187 12.4875C7.8375 12.5212 7.8375 12.555 7.80313 12.6225C7.76875 12.69 7.73438 12.7237 7.73438 12.7912C7.7 12.825 7.7 12.8587 7.66562 12.9262C7.63125 12.9937 7.63125 13.0275 7.59688 13.095C7.5625 13.1287 7.5625 13.1625 7.52812 13.23C7.49375 13.2975 7.49375 13.3312 7.45938 13.3987C7.45938 13.4325 7.425 13.5 7.425 13.5337C7.39062 13.6012 7.39062 13.6687 7.39062 13.7025C7.39062 13.7362 7.35625 13.8037 7.35625 13.8375C7.35625 13.905 7.32187 13.9725 7.32187 14.04C7.32187 14.0737 7.32188 14.1075 7.2875 14.175C7.2875 14.2425 7.25313 14.31 7.25313 14.3775C7.25313 14.4112 7.25313 14.445 7.25313 14.4787C7.25313 14.58 7.25313 14.6812 7.25313 14.8162V17.0437C7.25313 17.1112 7.25313 17.2125 7.25313 17.28H3.025H2.37188L1.06562 1.01249ZM8.31875 20.5875H3.36875V17.8875H7.32187C7.35625 18.0562 7.39063 18.1912 7.45938 18.36C7.45938 18.3937 7.49375 18.4275 7.49375 18.4612C7.5625 18.5962 7.59687 18.765 7.7 18.9C7.7 18.9337 7.73438 18.9337 7.73438 18.9675C7.80312 19.1025 7.87188 19.2375 7.975 19.3725C7.975 19.3725 7.975 19.4062 8.00937 19.4062C8.1125 19.5412 8.21563 19.6762 8.31875 19.7775L8.35312 19.8112V20.5875H8.31875ZM20.9688 16.9762C20.9688 18.9675 19.3188 20.5875 17.2906 20.5875H11.5844C10.5531 20.5875 9.59062 20.1825 8.90312 19.44C8.83437 19.3725 8.76562 19.305 8.73125 19.2375C8.35312 18.7987 8.1125 18.2925 8.00937 17.7525C7.975 17.685 7.975 17.5837 7.975 17.5162C7.94063 17.3475 7.94063 17.1787 7.94063 16.9762V14.7487C7.94063 14.6475 7.94063 14.5462 7.94063 14.4787C7.94063 14.31 7.975 14.1075 8.04375 13.9387C8.28437 12.8925 9.04062 11.9475 10.0719 11.475C10.1406 11.4412 10.2438 11.4075 10.3469 11.3737C10.7594 11.205 11.2063 11.1375 11.6531 11.1375H12.7188H16.1562H17.2906C19.3188 11.1375 20.9688 12.7575 20.9688 14.7487V16.9762Z"/>
</mask>
<path d="M17.2906 10.4625H16.5V7.42499C16.5 7.22249 16.3625 7.08749 16.1562 7.08749H12.7188C12.5125 7.08749 12.375 7.22249 12.375 7.42499V10.4625H11.5844C11.2406 10.4625 10.8625 10.4962 10.5188 10.5975L11.3438 0.708744C11.3438 0.607494 11.3094 0.506244 11.2406 0.438744C11.1719 0.371244 11.1031 0.337494 11 0.337494H0.6875C0.584375 0.337494 0.515625 0.371244 0.446875 0.438744C0.378125 0.506244 0.34375 0.607494 0.34375 0.708744L1.71875 17.5837C1.71875 17.7525 1.89062 17.8875 2.0625 17.8875H2.68125V20.925C2.68125 21.1275 2.81875 21.2625 3.025 21.2625H8.6625C8.86875 21.2625 9.00625 21.1275 9.00625 20.925V20.4187C9.7625 20.9587 10.6562 21.2625 11.5844 21.2625H17.2906C19.6969 21.2625 21.6562 19.3387 21.6562 16.9762V14.7487C21.6562 12.3862 19.6969 10.4625 17.2906 10.4625ZM13.0625 7.76249H15.8125V10.4625H13.0625V7.76249ZM1.06562 1.01249H10.6219L9.83125 10.8337C9.79688 10.8337 9.79688 10.8675 9.7625 10.8675C9.72812 10.9012 9.65938 10.9012 9.625 10.935C9.55625 10.9687 9.52188 11.0025 9.4875 11.0025C9.45312 11.0362 9.38438 11.0362 9.35 11.07C9.31563 11.1037 9.24687 11.1375 9.2125 11.1712C9.17812 11.205 9.14375 11.2387 9.075 11.2387C9.04062 11.2725 8.97188 11.3062 8.9375 11.34C8.90312 11.3737 8.86875 11.4075 8.83438 11.4412C8.8 11.475 8.73125 11.5087 8.69687 11.5425C8.6625 11.5762 8.62813 11.61 8.59375 11.6437C8.55937 11.6775 8.525 11.7112 8.45625 11.7787C8.42188 11.8125 8.3875 11.8462 8.35312 11.88C8.31875 11.9137 8.28438 11.9812 8.25 12.015C8.21562 12.0487 8.18125 12.0825 8.14688 12.1162C8.1125 12.15 8.07812 12.2175 8.04375 12.2512C8.00938 12.285 7.975 12.3187 7.975 12.3525C7.94063 12.3862 7.90625 12.4537 7.87187 12.4875C7.8375 12.5212 7.8375 12.555 7.80313 12.6225C7.76875 12.69 7.73438 12.7237 7.73438 12.7912C7.7 12.825 7.7 12.8587 7.66562 12.9262C7.63125 12.9937 7.63125 13.0275 7.59688 13.095C7.5625 13.1287 7.5625 13.1625 7.52812 13.23C7.49375 13.2975 7.49375 13.3312 7.45938 13.3987C7.45938 13.4325 7.425 13.5 7.425 13.5337C7.39062 13.6012 7.39062 13.6687 7.39062 13.7025C7.39062 13.7362 7.35625 13.8037 7.35625 13.8375C7.35625 13.905 7.32187 13.9725 7.32187 14.04C7.32187 14.0737 7.32188 14.1075 7.2875 14.175C7.2875 14.2425 7.25313 14.31 7.25313 14.3775C7.25313 14.4112 7.25313 14.445 7.25313 14.4787C7.25313 14.58 7.25313 14.6812 7.25313 14.8162V17.0437C7.25313 17.1112 7.25313 17.2125 7.25313 17.28H3.025H2.37188L1.06562 1.01249ZM8.31875 20.5875H3.36875V17.8875H7.32187C7.35625 18.0562 7.39063 18.1912 7.45938 18.36C7.45938 18.3937 7.49375 18.4275 7.49375 18.4612C7.5625 18.5962 7.59687 18.765 7.7 18.9C7.7 18.9337 7.73438 18.9337 7.73438 18.9675C7.80312 19.1025 7.87188 19.2375 7.975 19.3725C7.975 19.3725 7.975 19.4062 8.00937 19.4062C8.1125 19.5412 8.21563 19.6762 8.31875 19.7775L8.35312 19.8112V20.5875H8.31875ZM20.9688 16.9762C20.9688 18.9675 19.3188 20.5875 17.2906 20.5875H11.5844C10.5531 20.5875 9.59062 20.1825 8.90312 19.44C8.83437 19.3725 8.76562 19.305 8.73125 19.2375C8.35312 18.7987 8.1125 18.2925 8.00937 17.7525C7.975 17.685 7.975 17.5837 7.975 17.5162C7.94063 17.3475 7.94063 17.1787 7.94063 16.9762V14.7487C7.94063 14.6475 7.94063 14.5462 7.94063 14.4787C7.94063 14.31 7.975 14.1075 8.04375 13.9387C8.28437 12.8925 9.04062 11.9475 10.0719 11.475C10.1406 11.4412 10.2438 11.4075 10.3469 11.3737C10.7594 11.205 11.2063 11.1375 11.6531 11.1375H12.7188H16.1562H17.2906C19.3188 11.1375 20.9688 12.7575 20.9688 14.7487V16.9762Z" fill="#53A665"/>
<path d="M17.2906 10.4625H16.5V7.42499C16.5 7.22249 16.3625 7.08749 16.1562 7.08749H12.7188C12.5125 7.08749 12.375 7.22249 12.375 7.42499V10.4625H11.5844C11.2406 10.4625 10.8625 10.4962 10.5188 10.5975L11.3438 0.708744C11.3438 0.607494 11.3094 0.506244 11.2406 0.438744C11.1719 0.371244 11.1031 0.337494 11 0.337494H0.6875C0.584375 0.337494 0.515625 0.371244 0.446875 0.438744C0.378125 0.506244 0.34375 0.607494 0.34375 0.708744L1.71875 17.5837C1.71875 17.7525 1.89062 17.8875 2.0625 17.8875H2.68125V20.925C2.68125 21.1275 2.81875 21.2625 3.025 21.2625H8.6625C8.86875 21.2625 9.00625 21.1275 9.00625 20.925V20.4187C9.7625 20.9587 10.6562 21.2625 11.5844 21.2625H17.2906C19.6969 21.2625 21.6562 19.3387 21.6562 16.9762V14.7487C21.6562 12.3862 19.6969 10.4625 17.2906 10.4625ZM13.0625 7.76249H15.8125V10.4625H13.0625V7.76249ZM1.06562 1.01249H10.6219L9.83125 10.8337C9.79688 10.8337 9.79688 10.8675 9.7625 10.8675C9.72812 10.9012 9.65938 10.9012 9.625 10.935C9.55625 10.9687 9.52188 11.0025 9.4875 11.0025C9.45312 11.0362 9.38438 11.0362 9.35 11.07C9.31563 11.1037 9.24687 11.1375 9.2125 11.1712C9.17812 11.205 9.14375 11.2387 9.075 11.2387C9.04062 11.2725 8.97188 11.3062 8.9375 11.34C8.90312 11.3737 8.86875 11.4075 8.83438 11.4412C8.8 11.475 8.73125 11.5087 8.69687 11.5425C8.6625 11.5762 8.62813 11.61 8.59375 11.6437C8.55937 11.6775 8.525 11.7112 8.45625 11.7787C8.42188 11.8125 8.3875 11.8462 8.35312 11.88C8.31875 11.9137 8.28438 11.9812 8.25 12.015C8.21562 12.0487 8.18125 12.0825 8.14688 12.1162C8.1125 12.15 8.07812 12.2175 8.04375 12.2512C8.00938 12.285 7.975 12.3187 7.975 12.3525C7.94063 12.3862 7.90625 12.4537 7.87187 12.4875C7.8375 12.5212 7.8375 12.555 7.80313 12.6225C7.76875 12.69 7.73438 12.7237 7.73438 12.7912C7.7 12.825 7.7 12.8587 7.66562 12.9262C7.63125 12.9937 7.63125 13.0275 7.59688 13.095C7.5625 13.1287 7.5625 13.1625 7.52812 13.23C7.49375 13.2975 7.49375 13.3312 7.45938 13.3987C7.45938 13.4325 7.425 13.5 7.425 13.5337C7.39062 13.6012 7.39062 13.6687 7.39062 13.7025C7.39062 13.7362 7.35625 13.8037 7.35625 13.8375C7.35625 13.905 7.32187 13.9725 7.32187 14.04C7.32187 14.0737 7.32188 14.1075 7.2875 14.175C7.2875 14.2425 7.25313 14.31 7.25313 14.3775C7.25313 14.4112 7.25313 14.445 7.25313 14.4787C7.25313 14.58 7.25313 14.6812 7.25313 14.8162V17.0437C7.25313 17.1112 7.25313 17.2125 7.25313 17.28H3.025H2.37188L1.06562 1.01249ZM8.31875 20.5875H3.36875V17.8875H7.32187C7.35625 18.0562 7.39063 18.1912 7.45938 18.36C7.45938 18.3937 7.49375 18.4275 7.49375 18.4612C7.5625 18.5962 7.59687 18.765 7.7 18.9C7.7 18.9337 7.73438 18.9337 7.73438 18.9675C7.80312 19.1025 7.87188 19.2375 7.975 19.3725C7.975 19.3725 7.975 19.4062 8.00937 19.4062C8.1125 19.5412 8.21563 19.6762 8.31875 19.7775L8.35312 19.8112V20.5875H8.31875ZM20.9688 16.9762C20.9688 18.9675 19.3188 20.5875 17.2906 20.5875H11.5844C10.5531 20.5875 9.59062 20.1825 8.90312 19.44C8.83437 19.3725 8.76562 19.305 8.73125 19.2375C8.35312 18.7987 8.1125 18.2925 8.00937 17.7525C7.975 17.685 7.975 17.5837 7.975 17.5162C7.94063 17.3475 7.94063 17.1787 7.94063 16.9762V14.7487C7.94063 14.6475 7.94063 14.5462 7.94063 14.4787C7.94063 14.31 7.975 14.1075 8.04375 13.9387C8.28437 12.8925 9.04062 11.9475 10.0719 11.475C10.1406 11.4412 10.2438 11.4075 10.3469 11.3737C10.7594 11.205 11.2063 11.1375 11.6531 11.1375H12.7188H16.1562H17.2906C19.3188 11.1375 20.9688 12.7575 20.9688 14.7487V16.9762Z" stroke="#53A665" stroke-width="0.6" mask="url(#path-1-outside-1_1_537)"/>
</svg>
