<svg width="20" height="21" viewBox="0 0 20 21" fill="none" xmlns="http://www.w3.org/2000/svg">
<mask id="path-1-outside-1_1_520" maskUnits="userSpaceOnUse" x="-0.589569" y="-0.000396729" width="21" height="21" fill="black">
<rect fill="white" x="-0.589569" y="-0.000396729" width="21" height="21"/>
<path d="M19.31 8.4588H9.97761L9.91321 7.95768C9.90178 7.89133 9.86809 7.8312 9.81801 7.78776C9.44281 7.1772 9.05081 6.414 9.05081 6.21528C9.05081 5.84376 9.27761 4.9452 9.67521 3.75288C9.82062 3.3173 9.89443 2.85983 9.89361 2.39928V1.2876C9.89361 1.21122 9.86411 1.13797 9.8116 1.08396C9.75909 1.02995 9.68787 0.999603 9.61361 0.999603H2.16001C2.08575 0.999603 2.01453 1.02995 1.96202 1.08396C1.90951 1.13797 1.88001 1.21122 1.88001 1.2876V2.39928C1.87918 2.85983 1.95299 3.3173 2.09841 3.75288C2.49041 4.9452 2.72001 5.84376 2.72001 6.21528C2.72001 6.414 2.33361 7.1628 1.95841 7.77336C1.9033 7.81943 1.86727 7.88532 1.85761 7.95768L0.412808 19.4777C0.407601 19.5185 0.410971 19.56 0.422691 19.5994C0.434411 19.6388 0.454209 19.6752 0.480747 19.706C0.507286 19.7368 0.539949 19.7615 0.576531 19.7782C0.613114 19.795 0.652764 19.8035 0.692808 19.8031H11.0808C11.1209 19.8035 11.1605 19.795 11.1971 19.7782C11.2337 19.7615 11.2663 19.7368 11.2929 19.706C11.3194 19.6752 11.3392 19.6388 11.3509 19.5994C11.3626 19.56 11.366 19.5185 11.3608 19.4777L11.3048 19.0399H16.3448C16.4191 19.0399 16.4903 19.0096 16.5428 18.9556C16.5953 18.9016 16.6248 18.8283 16.6248 18.7519V12.0358L19.366 11.4886C19.4307 11.4757 19.4889 11.4398 19.5304 11.3871C19.5719 11.3344 19.594 11.2683 19.5928 11.2006V8.7468C19.5928 8.70874 19.5855 8.67105 19.5712 8.63592C19.557 8.60079 19.5361 8.56891 19.5098 8.54213C19.4835 8.51535 19.4523 8.4942 19.418 8.47989C19.3837 8.46559 19.347 8.45842 19.31 8.4588ZM14.34 9.0348C14.2452 9.43793 14.0213 9.79657 13.7045 10.0531C13.3876 10.3096 12.996 10.449 12.5928 10.449C12.1896 10.449 11.798 10.3096 11.4812 10.0531C11.1643 9.79657 10.9404 9.43793 10.8456 9.0348H14.34ZM5.87001 2.6988L4.40001 1.5756H7.33161L5.87001 2.6988ZM2.62201 3.5628C2.50011 3.18775 2.43863 2.79473 2.44001 2.39928V1.5756H3.48721L5.70761 3.3036C5.71822 3.31051 5.72947 3.31629 5.74121 3.32088C5.74962 3.32739 5.7591 3.33227 5.76921 3.33528C5.80224 3.3523 5.83867 3.36117 5.87561 3.3612C5.91255 3.36117 5.94898 3.3523 5.98201 3.33528C5.99211 3.33227 6.0016 3.32739 6.01001 3.32088C6.02174 3.31629 6.033 3.31051 6.04361 3.3036L8.26401 1.5756H9.33641V2.39928C9.34129 2.79548 9.28166 3.18973 9.16001 3.56568C8.86041 4.46424 8.50481 5.6508 8.50481 6.21528C8.50481 6.55512 8.85201 7.22904 9.12641 7.70712H2.65561C2.93561 7.22904 3.28001 6.55512 3.28001 6.21528C3.28001 5.6508 2.92161 4.46424 2.62201 3.56568V3.5628ZM10.7616 19.2242H1.00921L2.38121 8.28024H9.38121L9.40361 8.45592H5.87001C5.79575 8.45592 5.72453 8.48627 5.67202 8.54028C5.61951 8.59429 5.59001 8.66754 5.59001 8.74392V11.2063C5.58881 11.2741 5.6109 11.3402 5.65238 11.3928C5.69387 11.4455 5.7521 11.4815 5.81681 11.4943L8.56081 12.0415V18.7519C8.56081 18.8283 8.59031 18.9016 8.64282 18.9556C8.69533 19.0096 8.76655 19.0399 8.84081 19.0399H10.7392L10.7616 19.2242ZM19.03 10.9759L16.622 11.4569V10.734C16.622 10.6576 16.5925 10.5844 16.54 10.5304C16.4875 10.4763 16.4163 10.446 16.342 10.446C16.2677 10.446 16.1965 10.4763 16.144 10.5304C16.0915 10.5844 16.062 10.6576 16.062 10.734V18.4639H9.12081V10.8262C9.12081 10.7498 9.09131 10.6765 9.0388 10.6225C8.98629 10.5685 8.91507 10.5382 8.84081 10.5382C8.76655 10.5382 8.69533 10.5685 8.64282 10.6225C8.59031 10.6765 8.56081 10.7498 8.56081 10.8262V11.4482L6.15001 10.9759V9.0348H10.28C10.3785 9.5931 10.6643 10.0981 11.0878 10.4618C11.5112 10.8254 12.0454 11.0246 12.597 11.0246C13.1487 11.0246 13.6828 10.8254 14.1062 10.4618C14.5297 10.0981 14.8156 9.5931 14.914 9.0348H19.03V10.9759Z"/>
</mask>
<path d="M19.31 8.4588H9.97761L9.91321 7.95768C9.90178 7.89133 9.86809 7.8312 9.81801 7.78776C9.44281 7.1772 9.05081 6.414 9.05081 6.21528C9.05081 5.84376 9.27761 4.9452 9.67521 3.75288C9.82062 3.3173 9.89443 2.85983 9.89361 2.39928V1.2876C9.89361 1.21122 9.86411 1.13797 9.8116 1.08396C9.75909 1.02995 9.68787 0.999603 9.61361 0.999603H2.16001C2.08575 0.999603 2.01453 1.02995 1.96202 1.08396C1.90951 1.13797 1.88001 1.21122 1.88001 1.2876V2.39928C1.87918 2.85983 1.95299 3.3173 2.09841 3.75288C2.49041 4.9452 2.72001 5.84376 2.72001 6.21528C2.72001 6.414 2.33361 7.1628 1.95841 7.77336C1.9033 7.81943 1.86727 7.88532 1.85761 7.95768L0.412808 19.4777C0.407601 19.5185 0.410971 19.56 0.422691 19.5994C0.434411 19.6388 0.454209 19.6752 0.480747 19.706C0.507286 19.7368 0.539949 19.7615 0.576531 19.7782C0.613114 19.795 0.652764 19.8035 0.692808 19.8031H11.0808C11.1209 19.8035 11.1605 19.795 11.1971 19.7782C11.2337 19.7615 11.2663 19.7368 11.2929 19.706C11.3194 19.6752 11.3392 19.6388 11.3509 19.5994C11.3626 19.56 11.366 19.5185 11.3608 19.4777L11.3048 19.0399H16.3448C16.4191 19.0399 16.4903 19.0096 16.5428 18.9556C16.5953 18.9016 16.6248 18.8283 16.6248 18.7519V12.0358L19.366 11.4886C19.4307 11.4757 19.4889 11.4398 19.5304 11.3871C19.5719 11.3344 19.594 11.2683 19.5928 11.2006V8.7468C19.5928 8.70874 19.5855 8.67105 19.5712 8.63592C19.557 8.60079 19.5361 8.56891 19.5098 8.54213C19.4835 8.51535 19.4523 8.4942 19.418 8.47989C19.3837 8.46559 19.347 8.45842 19.31 8.4588ZM14.34 9.0348C14.2452 9.43793 14.0213 9.79657 13.7045 10.0531C13.3876 10.3096 12.996 10.449 12.5928 10.449C12.1896 10.449 11.798 10.3096 11.4812 10.0531C11.1643 9.79657 10.9404 9.43793 10.8456 9.0348H14.34ZM5.87001 2.6988L4.40001 1.5756H7.33161L5.87001 2.6988ZM2.62201 3.5628C2.50011 3.18775 2.43863 2.79473 2.44001 2.39928V1.5756H3.48721L5.70761 3.3036C5.71822 3.31051 5.72947 3.31629 5.74121 3.32088C5.74962 3.32739 5.7591 3.33227 5.76921 3.33528C5.80224 3.3523 5.83867 3.36117 5.87561 3.3612C5.91255 3.36117 5.94898 3.3523 5.98201 3.33528C5.99211 3.33227 6.0016 3.32739 6.01001 3.32088C6.02174 3.31629 6.033 3.31051 6.04361 3.3036L8.26401 1.5756H9.33641V2.39928C9.34129 2.79548 9.28166 3.18973 9.16001 3.56568C8.86041 4.46424 8.50481 5.6508 8.50481 6.21528C8.50481 6.55512 8.85201 7.22904 9.12641 7.70712H2.65561C2.93561 7.22904 3.28001 6.55512 3.28001 6.21528C3.28001 5.6508 2.92161 4.46424 2.62201 3.56568V3.5628ZM10.7616 19.2242H1.00921L2.38121 8.28024H9.38121L9.40361 8.45592H5.87001C5.79575 8.45592 5.72453 8.48627 5.67202 8.54028C5.61951 8.59429 5.59001 8.66754 5.59001 8.74392V11.2063C5.58881 11.2741 5.6109 11.3402 5.65238 11.3928C5.69387 11.4455 5.7521 11.4815 5.81681 11.4943L8.56081 12.0415V18.7519C8.56081 18.8283 8.59031 18.9016 8.64282 18.9556C8.69533 19.0096 8.76655 19.0399 8.84081 19.0399H10.7392L10.7616 19.2242ZM19.03 10.9759L16.622 11.4569V10.734C16.622 10.6576 16.5925 10.5844 16.54 10.5304C16.4875 10.4763 16.4163 10.446 16.342 10.446C16.2677 10.446 16.1965 10.4763 16.144 10.5304C16.0915 10.5844 16.062 10.6576 16.062 10.734V18.4639H9.12081V10.8262C9.12081 10.7498 9.09131 10.6765 9.0388 10.6225C8.98629 10.5685 8.91507 10.5382 8.84081 10.5382C8.76655 10.5382 8.69533 10.5685 8.64282 10.6225C8.59031 10.6765 8.56081 10.7498 8.56081 10.8262V11.4482L6.15001 10.9759V9.0348H10.28C10.3785 9.5931 10.6643 10.0981 11.0878 10.4618C11.5112 10.8254 12.0454 11.0246 12.597 11.0246C13.1487 11.0246 13.6828 10.8254 14.1062 10.4618C14.5297 10.0981 14.8156 9.5931 14.914 9.0348H19.03V10.9759Z" fill="#FF0B9D"/>
<path d="M19.31 8.4588H9.97761L9.91321 7.95768C9.90178 7.89133 9.86809 7.8312 9.81801 7.78776C9.44281 7.1772 9.05081 6.414 9.05081 6.21528C9.05081 5.84376 9.27761 4.9452 9.67521 3.75288C9.82062 3.3173 9.89443 2.85983 9.89361 2.39928V1.2876C9.89361 1.21122 9.86411 1.13797 9.8116 1.08396C9.75909 1.02995 9.68787 0.999603 9.61361 0.999603H2.16001C2.08575 0.999603 2.01453 1.02995 1.96202 1.08396C1.90951 1.13797 1.88001 1.21122 1.88001 1.2876V2.39928C1.87918 2.85983 1.95299 3.3173 2.09841 3.75288C2.49041 4.9452 2.72001 5.84376 2.72001 6.21528C2.72001 6.414 2.33361 7.1628 1.95841 7.77336C1.9033 7.81943 1.86727 7.88532 1.85761 7.95768L0.412808 19.4777C0.407601 19.5185 0.410971 19.56 0.422691 19.5994C0.434411 19.6388 0.454209 19.6752 0.480747 19.706C0.507286 19.7368 0.539949 19.7615 0.576531 19.7782C0.613114 19.795 0.652764 19.8035 0.692808 19.8031H11.0808C11.1209 19.8035 11.1605 19.795 11.1971 19.7782C11.2337 19.7615 11.2663 19.7368 11.2929 19.706C11.3194 19.6752 11.3392 19.6388 11.3509 19.5994C11.3626 19.56 11.366 19.5185 11.3608 19.4777L11.3048 19.0399H16.3448C16.4191 19.0399 16.4903 19.0096 16.5428 18.9556C16.5953 18.9016 16.6248 18.8283 16.6248 18.7519V12.0358L19.366 11.4886C19.4307 11.4757 19.4889 11.4398 19.5304 11.3871C19.5719 11.3344 19.594 11.2683 19.5928 11.2006V8.7468C19.5928 8.70874 19.5855 8.67105 19.5712 8.63592C19.557 8.60079 19.5361 8.56891 19.5098 8.54213C19.4835 8.51535 19.4523 8.4942 19.418 8.47989C19.3837 8.46559 19.347 8.45842 19.31 8.4588ZM14.34 9.0348C14.2452 9.43793 14.0213 9.79657 13.7045 10.0531C13.3876 10.3096 12.996 10.449 12.5928 10.449C12.1896 10.449 11.798 10.3096 11.4812 10.0531C11.1643 9.79657 10.9404 9.43793 10.8456 9.0348H14.34ZM5.87001 2.6988L4.40001 1.5756H7.33161L5.87001 2.6988ZM2.62201 3.5628C2.50011 3.18775 2.43863 2.79473 2.44001 2.39928V1.5756H3.48721L5.70761 3.3036C5.71822 3.31051 5.72947 3.31629 5.74121 3.32088C5.74962 3.32739 5.7591 3.33227 5.76921 3.33528C5.80224 3.3523 5.83867 3.36117 5.87561 3.3612C5.91255 3.36117 5.94898 3.3523 5.98201 3.33528C5.99211 3.33227 6.0016 3.32739 6.01001 3.32088C6.02174 3.31629 6.033 3.31051 6.04361 3.3036L8.26401 1.5756H9.33641V2.39928C9.34129 2.79548 9.28166 3.18973 9.16001 3.56568C8.86041 4.46424 8.50481 5.6508 8.50481 6.21528C8.50481 6.55512 8.85201 7.22904 9.12641 7.70712H2.65561C2.93561 7.22904 3.28001 6.55512 3.28001 6.21528C3.28001 5.6508 2.92161 4.46424 2.62201 3.56568V3.5628ZM10.7616 19.2242H1.00921L2.38121 8.28024H9.38121L9.40361 8.45592H5.87001C5.79575 8.45592 5.72453 8.48627 5.67202 8.54028C5.61951 8.59429 5.59001 8.66754 5.59001 8.74392V11.2063C5.58881 11.2741 5.6109 11.3402 5.65238 11.3928C5.69387 11.4455 5.7521 11.4815 5.81681 11.4943L8.56081 12.0415V18.7519C8.56081 18.8283 8.59031 18.9016 8.64282 18.9556C8.69533 19.0096 8.76655 19.0399 8.84081 19.0399H10.7392L10.7616 19.2242ZM19.03 10.9759L16.622 11.4569V10.734C16.622 10.6576 16.5925 10.5844 16.54 10.5304C16.4875 10.4763 16.4163 10.446 16.342 10.446C16.2677 10.446 16.1965 10.4763 16.144 10.5304C16.0915 10.5844 16.062 10.6576 16.062 10.734V18.4639H9.12081V10.8262C9.12081 10.7498 9.09131 10.6765 9.0388 10.6225C8.98629 10.5685 8.91507 10.5382 8.84081 10.5382C8.76655 10.5382 8.69533 10.5685 8.64282 10.6225C8.59031 10.6765 8.56081 10.7498 8.56081 10.8262V11.4482L6.15001 10.9759V9.0348H10.28C10.3785 9.5931 10.6643 10.0981 11.0878 10.4618C11.5112 10.8254 12.0454 11.0246 12.597 11.0246C13.1487 11.0246 13.6828 10.8254 14.1062 10.4618C14.5297 10.0981 14.8156 9.5931 14.914 9.0348H19.03V10.9759Z" stroke="#FF0B9D" stroke-width="0.6" mask="url(#path-1-outside-1_1_520)"/>
</svg>
