<svg width="21" height="20" viewBox="0 0 21 20" fill="none" xmlns="http://www.w3.org/2000/svg">
<path d="M19.0312 8.775C19.0315 7.87631 18.6784 7.01284 18.0469 6.3676V5.2C18.0469 5.1138 18.0123 5.03114 17.9508 4.97019C17.8892 4.90924 17.8058 4.875 17.7188 4.875H17.5265L17.9507 4.45481C18.1863 4.22148 18.3187 3.905 18.3187 3.57501C18.3187 3.24502 18.1863 2.92854 17.9508 2.6952C17.7152 2.46186 17.3957 2.33077 17.0625 2.33077C16.7293 2.33076 16.4098 2.46185 16.1742 2.69518L13.9734 4.875H13.4531V3.9C13.4531 3.82968 13.4301 3.76125 13.3875 3.705L12.4688 2.49165V1.3C12.4688 1.2138 12.4342 1.13114 12.3726 1.07019C12.3111 1.00924 12.2276 0.974998 12.1406 0.974998H7.875C7.78798 0.974998 7.70452 1.00924 7.64298 1.07019C7.58144 1.13114 7.54688 1.2138 7.54688 1.3V2.49165L6.62813 3.705L6.62841 3.70524C6.58562 3.76132 6.56248 3.8297 6.5625 3.9V5.06476C6.36392 4.94665 6.13781 4.88157 5.90625 4.87589V3.575C5.90625 3.4888 5.87168 3.40614 5.81014 3.34519C5.74861 3.28424 5.66515 3.25 5.57812 3.25H3.60938C3.52235 3.25 3.43889 3.28424 3.37736 3.34519C3.31582 3.40614 3.28125 3.4888 3.28125 3.575V4.87589C2.93019 4.88541 2.5967 5.03011 2.35163 5.27926C2.10656 5.52841 1.96921 5.86237 1.96875 6.21022V8.775C1.62065 8.775 1.28681 8.91196 1.04067 9.15576C0.794531 9.39956 0.65625 9.73022 0.65625 10.075C0.65625 10.4198 0.794531 10.7504 1.04067 10.9942C1.28681 11.238 1.62065 11.375 1.96875 11.375H2.01534L3.08253 18.2457C3.14886 18.6863 3.37326 19.0885 3.7146 19.3785C4.05594 19.6686 4.49138 19.8271 4.94111 19.825H16.0589C16.5086 19.8271 16.9441 19.6686 17.2854 19.3785C17.6268 19.0885 17.8511 18.6863 17.9175 18.2457L18.9847 11.375H19.0312C19.3793 11.375 19.7132 11.238 19.9593 10.9942C20.2055 10.7504 20.3438 10.4198 20.3438 10.075C20.3438 9.73022 20.2055 9.39956 19.9593 9.15576C19.7132 8.91196 19.3793 8.775 19.0312 8.775ZM15.5578 6.825H17.0393C16.6371 7.39807 16.417 8.07713 16.4073 8.775H13.5891L15.5578 6.825ZM17.7328 6.99493C18.148 7.49701 18.3749 8.12598 18.375 8.775H17.0637C17.0745 8.1233 17.3107 7.49499 17.7328 6.99493ZM17.3906 5.525V6.175H16.214L16.8703 5.525H17.3906ZM16.6382 3.15481C16.6938 3.09893 16.76 3.05449 16.8329 3.02406C16.9059 2.99363 16.9842 2.9778 17.0634 2.9775C17.1426 2.97719 17.2211 2.99241 17.2943 3.02229C17.3675 3.05216 17.434 3.09608 17.49 3.15154C17.546 3.20699 17.5903 3.27287 17.6205 3.34539C17.6507 3.4179 17.666 3.49561 17.6657 3.57403C17.6654 3.65246 17.6494 3.73005 17.6187 3.80233C17.588 3.87461 17.5431 3.94016 17.4867 3.99518L10.9242 10.4952C10.8687 10.5511 10.8025 10.5955 10.7295 10.6259C10.6565 10.6564 10.5782 10.6722 10.499 10.6725C10.4199 10.6728 10.3414 10.6576 10.2682 10.6277C10.195 10.5978 10.1285 10.5539 10.0725 10.4985C10.0165 10.443 9.97212 10.3771 9.94196 10.3046C9.9118 10.2321 9.89643 10.1544 9.89673 10.076C9.89704 9.99754 9.91301 9.91995 9.94373 9.84767C9.97445 9.77538 10.0193 9.70984 10.0757 9.65481L16.6382 3.15481ZM11.4844 2.925L10.9922 3.575H7.54688L8.03906 2.925H11.4844ZM7.21875 4.225H10.8281V7.99037L10.036 8.775H7.21875V4.225ZM12.7969 6.04037V5.525H13.3172L12.7969 6.04037ZM12.7969 4.875H12.4688C12.3817 4.875 12.2983 4.90924 12.2367 4.97019C12.1752 5.03114 12.1406 5.1138 12.1406 5.2V6.5C12.1406 6.55315 12.1538 6.60549 12.179 6.65238L11.4844 7.34037V4.00835L12.1406 3.14169L12.7969 4.00835V4.875ZM11.8125 1.625V2.275H8.20312V1.625H11.8125ZM5.25 3.9V4.875H3.9375V3.9H5.25ZM2.625 8.125H5.90625V7.475H2.625V6.21022C2.6252 6.02855 2.69815 5.85437 2.82784 5.72591C2.95754 5.59745 3.13339 5.52519 3.31681 5.525H5.87069C6.05411 5.52519 6.22996 5.59745 6.35966 5.72591C6.48935 5.85437 6.5623 6.02855 6.5625 6.21022V8.775H2.625V8.125ZM1.3125 10.075C1.31271 9.90267 1.38191 9.73746 1.50494 9.6156C1.62797 9.49375 1.79476 9.4252 1.96875 9.425H9.42859C9.30773 9.62068 9.24378 9.84561 9.24378 10.075C9.24378 10.3044 9.30773 10.5293 9.42859 10.725H1.96875C1.79476 10.7248 1.62797 10.6562 1.50494 10.5344C1.38191 10.4125 1.31271 10.2473 1.3125 10.075ZM17.2688 18.1469C17.2256 18.4337 17.0796 18.6955 16.8574 18.8843C16.6351 19.0732 16.3517 19.1763 16.0589 19.175H4.94111C4.64833 19.1764 4.36485 19.0732 4.14263 18.8844C3.92041 18.6955 3.77433 18.4337 3.73115 18.1469L2.67935 11.375H18.3207L17.2688 18.1469ZM19.0312 10.725H11.6203L12.9328 9.425H19.0312C19.2053 9.425 19.3722 9.49348 19.4953 9.61538C19.6184 9.73728 19.6875 9.90261 19.6875 10.075C19.6875 10.2474 19.6184 10.4127 19.4953 10.5346C19.3722 10.6565 19.2053 10.725 19.0312 10.725Z" fill="#0D80EB"/>
</svg>
