<svg width="19" height="31" viewBox="0 0 19 31" fill="none" xmlns="http://www.w3.org/2000/svg">
<path d="M16.9319 20.8536L17.4699 20.5817C17.4699 20.5817 17.4699 20.5137 17.4699 19.7659C17.4699 18.8481 16.9823 18.6612 16.8478 18.6272V15.67C18.1929 14.0214 19 11.8969 19 9.60252C19 4.29989 14.746 0 9.5 0C4.25398 0 0 4.31688 0 9.60252C0 11.71 0.672566 13.6475 1.81593 15.2281V18.7122C1.68142 18.7462 1.21062 18.9501 1.19381 19.8509C1.17699 20.9046 1.21062 21.5844 1.21062 21.5844L1.81593 21.7034L1.21062 21.7204C1.21062 21.7204 1.32832 24.3037 1.88319 25.5614L1.86637 18.7802H1.93363V25.5614C2.69027 23.9808 2.58938 20.7516 2.58938 20.7516L2.05133 20.9216L2.58938 20.6497C2.58938 20.6497 2.58938 20.5817 2.58938 19.8339C2.58938 18.9671 2.15221 18.7462 1.98407 18.6952V15.432C2.53894 16.1628 3.19469 16.7917 3.9177 17.3355V21.0406C3.78319 21.0746 3.31239 21.2785 3.29558 22.1793C3.27876 23.233 3.31239 23.9128 3.31239 23.9128L3.9177 24.0318L3.31239 24.0488C3.31239 24.0488 3.43009 26.6321 3.98496 27.8898L3.95133 21.2105H4.01858V27.9068C4.77522 26.3262 4.67434 23.097 4.67434 23.097L4.13628 23.267L4.67434 22.9951C4.67434 22.9951 4.67434 22.9271 4.67434 22.1793C4.67434 21.3125 4.23717 21.0916 4.06903 21.0406V17.4715C4.79204 17.9814 5.59912 18.4062 6.45664 18.6952V24.1338C6.30531 24.1848 5.86814 24.3887 5.85133 25.2725C5.83451 26.3262 5.86814 27.006 5.86814 27.006L6.47345 27.125L5.86814 27.142C5.86814 27.142 5.98584 29.7253 6.54071 30.983L6.52389 24.2697H6.59115V31C7.34779 29.4194 7.2469 26.1902 7.2469 26.1902L6.70885 26.3602L7.2469 26.0883C7.2469 26.0883 7.2469 26.0203 7.2469 25.2725C7.2469 24.3887 6.79292 24.1848 6.64159 24.1338V18.7632C7.54956 19.0521 8.50797 19.205 9.5 19.205C10.3743 19.205 11.215 19.0861 12.0221 18.8651V24.1508C11.8708 24.2018 11.4168 24.4057 11.4168 25.2895C11.4 26.3432 11.4336 27.023 11.4336 27.023L12.0389 27.142L11.4336 27.159C11.4336 27.159 11.5513 29.7423 12.1062 31L12.0894 24.2357H12.1566V31C12.9133 29.4194 12.8124 26.1902 12.8124 26.1902L12.2743 26.3602L12.8124 26.0883C12.8124 26.0883 12.8124 26.0203 12.8124 25.2725C12.8124 24.3887 12.3584 24.1848 12.2071 24.1338V18.7971C13.0646 18.5422 13.8717 18.1683 14.5947 17.6924V21.0576C14.4434 21.1086 13.9894 21.3125 13.9894 22.1963C13.9726 23.25 14.0062 23.9298 14.0062 23.9298L14.6115 24.0488L14.0062 24.0658C14.0062 24.0658 14.1239 26.6491 14.6788 27.9068L14.6619 21.1425H14.7292V27.9068C15.4858 26.3262 15.385 23.097 15.385 23.097L14.8469 23.267L15.385 22.9951C15.385 22.9951 15.385 22.9271 15.385 22.1793C15.385 21.2955 14.931 21.0916 14.7796 21.0406V17.5565C15.5027 17.0636 16.1416 16.4857 16.7133 15.8229V18.5932C16.5451 18.6442 16.1416 18.8821 16.1248 19.7149C16.108 20.7686 16.1416 21.4485 16.1416 21.4485L16.7469 21.5674L16.1416 21.5844C16.1416 21.5844 16.2593 24.1678 16.8142 25.4254L16.7973 18.6782H16.8646V25.4254C17.6212 23.8448 17.5204 20.6157 17.5204 20.6157L16.9319 20.8536ZM18.4788 9.16063C18.731 9.16063 18.9496 9.36458 18.9496 9.63651C18.9496 9.90844 18.7478 10.1124 18.4788 10.1124C18.2265 10.1124 18.008 9.90844 18.008 9.63651C18.008 9.36458 18.2097 9.16063 18.4788 9.16063ZM17.9743 9.19463C16.5788 7.66502 15.1159 6.91721 13.6363 6.9852C12.7619 7.01919 11.9885 7.32511 11.3496 7.71601C11.7363 7.07017 12.0558 6.27138 12.0894 5.37061C12.1566 3.875 11.4336 2.43037 9.9708 1.03673C14.3088 1.29167 17.7726 4.80976 17.9743 9.19463ZM9.07965 9.41557C9.13009 9.48355 9.18053 9.53454 9.21416 9.58553C9.09646 9.73849 8.84425 10.0444 8.47434 10.3843C8.3062 10.1634 8.20531 9.89145 8.20531 9.60252C8.20531 9.3136 8.3062 9.04167 8.47434 8.82072C8.69292 9.07566 8.9115 9.2796 9.07965 9.41557ZM8.74336 8.56579C8.94513 8.42982 9.18053 8.34485 9.43274 8.34485C9.71858 8.34485 9.9708 8.44682 10.1894 8.59978C9.95398 8.82072 9.78584 9.02467 9.65133 9.17763C9.60089 9.22862 9.53363 9.2796 9.5 9.2966C9.44956 9.26261 9.39912 9.21162 9.33186 9.16063C9.18053 9.00767 8.99558 8.78673 8.74336 8.56579ZM9.48319 9.97643C9.58407 10.0614 9.75221 10.1974 9.95398 10.4013C10.0044 10.4523 10.0381 10.4863 10.0885 10.5373C10.1053 10.5543 10.1389 10.5883 10.1558 10.6053C9.95398 10.7582 9.70177 10.8432 9.41593 10.8432C9.16372 10.8432 8.94513 10.7752 8.74336 10.6393C9.07965 10.3163 9.34867 10.0954 9.48319 9.97643ZM9.7354 9.61952C9.76903 9.56853 9.81947 9.51754 9.88673 9.43256C10.0381 9.2966 10.2398 9.12664 10.4584 8.88871C10.5929 9.09265 10.677 9.33059 10.677 9.60252C10.677 9.89145 10.5761 10.1464 10.4248 10.3673C10.3912 10.3333 10.3407 10.2993 10.3071 10.2654C10.2903 10.2484 10.2566 10.2144 10.2398 10.1974C10.0044 9.94243 9.81947 9.72149 9.7354 9.61952ZM10.5425 8.24287C10.2398 7.98794 9.8531 7.83498 9.43274 7.83498C9.04602 7.83498 8.67611 7.97094 8.39027 8.19189C7.8354 7.47807 7.26372 6.50932 7.23009 5.35362C7.16283 3.892 7.93628 2.44737 9.5 1.05373C11.0637 2.43037 11.8204 3.875 11.7699 5.35362C11.7027 6.52632 11.1142 7.52906 10.5425 8.24287ZM8.08761 10.7242C7.39823 11.2851 6.42301 11.8289 5.29646 11.8799C3.85044 11.9479 2.42124 11.1661 1.04248 9.58553C2.40442 8.00493 3.83363 7.24013 5.29646 7.29112C6.43982 7.3421 7.39823 7.90296 8.10442 8.46382C7.85221 8.76974 7.70088 9.16063 7.70088 9.60252C7.70088 10.0274 7.8354 10.4183 8.08761 10.7242ZM8.42389 11.0471C8.70973 11.2511 9.06283 11.3701 9.43274 11.3701C9.83628 11.3701 10.2062 11.2341 10.5089 10.9962C11.0973 11.71 11.7027 12.7297 11.7531 13.9364C11.8204 15.381 11.0637 16.8257 9.53363 18.1853C9.51681 18.1853 9.51682 18.1853 9.5 18.1853C9.48319 18.1853 9.46637 18.1853 9.44956 18.1853C7.91947 16.8087 7.16283 15.381 7.23009 13.9364C7.28053 12.7637 7.85221 11.761 8.42389 11.0471ZM10.8115 8.5318C11.5177 7.95395 12.4929 7.3761 13.6531 7.32511C15.0991 7.25713 16.5283 8.03893 17.9071 9.61952C16.5451 11.2001 15.1159 11.9649 13.6531 11.9139C12.4929 11.8629 11.5009 11.2851 10.7947 10.7072C11.0301 10.4013 11.1646 10.0274 11.1646 9.61952C11.1814 9.19463 11.0469 8.82072 10.8115 8.5318ZM9.46637 0.0509867C9.71858 0.0509867 9.93717 0.254934 9.93717 0.526864C9.93717 0.781798 9.7354 1.00274 9.46637 1.00274C9.21416 1.00274 8.99558 0.798794 8.99558 0.526864C8.99558 0.27193 9.21416 0.0509867 9.46637 0.0509867ZM8.99558 1.03673C7.53274 2.41338 6.80974 3.875 6.87699 5.37061C6.91062 6.25439 7.23009 7.05318 7.61681 7.69901C6.97788 7.30811 6.18761 7.00219 5.31327 6.95121C3.83363 6.88322 2.40442 7.61404 1.02566 9.10965C1.27788 4.77577 4.70796 1.29167 8.99558 1.03673ZM0.521239 10.0274C0.269026 10.0274 0.0504424 9.82346 0.0504424 9.55153C0.0504424 9.2966 0.252212 9.07566 0.521239 9.07566C0.773451 9.07566 0.992035 9.2796 0.992035 9.55153C0.975221 9.80647 0.773451 10.0274 0.521239 10.0274ZM1.02566 10.0614C2.33717 11.489 3.73274 12.2198 5.14513 12.2198C5.21239 12.2198 5.26283 12.2198 5.33009 12.2198C6.27168 12.1859 7.07876 11.8289 7.75133 11.4041C7.31416 12.0839 6.94425 12.9337 6.89381 13.9194C6.82655 15.381 7.51593 16.8087 8.92832 18.1683C4.65752 17.8794 1.24425 14.3953 1.02566 10.0614ZM9.5 19.1711C9.24779 19.1711 9.0292 18.9671 9.0292 18.6952C9.0292 18.4232 9.23097 18.2193 9.5 18.2193C9.75221 18.2193 9.9708 18.4232 9.9708 18.6952C9.9708 18.9671 9.75221 19.1711 9.5 19.1711ZM10.0549 18.1683C11.4673 16.8087 12.1566 15.381 12.0894 13.9194C12.0558 12.9846 11.7027 12.1519 11.2823 11.472C11.9381 11.8799 12.7283 12.2029 13.6195 12.2368C13.6867 12.2368 13.7372 12.2368 13.8044 12.2368C15.2336 12.2368 16.6292 11.489 17.9743 10.0274C17.7726 14.3783 14.3425 17.8794 10.0549 18.1683Z" fill="#FF9898"/>
</svg>
