<svg width="19" height="22" viewBox="0 0 19 22" fill="none" xmlns="http://www.w3.org/2000/svg">
<path d="M14.15 18.85H14V12.5C13.9995 11.9819 14.1612 11.4766 14.4625 11.0551C14.7638 10.6337 15.1896 10.3171 15.68 10.15C15.9417 10.0496 16.2197 9.99872 16.5 10H16.85V10.15M14.15 18.85V19H16.85V18.85M14.15 18.85V12.5V12.4998C14.1495 12.0131 14.3015 11.5384 14.5845 11.1424C14.8676 10.7464 15.2676 10.449 15.7284 10.292L15.7284 10.2921L15.7337 10.29C15.978 10.1963 16.2376 10.1488 16.4993 10.15H16.5H16.85M14.15 18.85H16.85M16.85 18.85H17V10.15H16.85M16.85 18.85V10.15M16.5054 8.85C16.3871 8.84154 16.2685 8.83896 16.15 8.84227L16.15 7.5L16.15 7.49977C16.1473 5.73697 15.4458 4.04715 14.1993 2.80066C12.9529 1.55417 11.263 0.852706 9.50023 0.849999L9.49977 0.85C7.73697 0.852706 6.04715 1.55417 4.80066 2.80066C3.55417 4.04715 2.85271 5.73697 2.85 7.49977V7.5V8.84223C2.7315 8.8389 2.61287 8.84149 2.49456 8.85H1.5C1.32761 8.85 1.16228 8.91848 1.04038 9.04038C0.918482 9.16228 0.85 9.32761 0.85 9.5V19.5C0.85 19.6724 0.918482 19.8377 1.04038 19.9596C1.16228 20.0815 1.32761 20.15 1.5 20.15H1.85V20.5C1.85 20.6724 1.91848 20.8377 2.04038 20.9596C2.16228 21.0815 2.32761 21.15 2.5 21.15H4.5C4.67239 21.15 4.83772 21.0815 4.95962 20.9596C5.08152 20.8377 5.15 20.6724 5.15 20.5V20.15H13.85V20.5C13.85 20.6724 13.9185 20.8377 14.0404 20.9596C14.1623 21.0815 14.3276 21.15 14.5 21.15H16.5C16.6724 21.15 16.8377 21.0815 16.9596 20.9596C17.0815 20.8377 17.15 20.6724 17.15 20.5V20.15H17.5C17.6724 20.15 17.8377 20.0815 17.9596 19.9596C18.0815 19.8377 18.15 19.6724 18.15 19.5V9.5C18.15 9.32761 18.0815 9.16228 17.9596 9.04038C17.8377 8.91848 17.6724 8.85 17.5 8.85H16.5054ZM4.85 13.5V18.85H2.15V10.15L2.5 10.15L2.5016 10.15C2.76973 10.1471 3.03602 10.1947 3.28658 10.2902L3.28656 10.2902L3.29081 10.2917C3.74871 10.4506 4.14533 10.749 4.42497 11.1449C4.70462 11.5408 4.85326 12.0143 4.85 12.499V12.5V13.5ZM14.85 7.50027V9.20141L14.8348 9.21019L14.6448 9.32019L14.6448 9.32006L14.6391 9.32366L14.3891 9.48366L14.3888 9.48313L14.3779 9.4916L14.1979 9.6316L14.1978 9.63144L14.192 9.63648L13.972 9.82648L13.9597 9.83705L13.95 9.85L13.8019 10.0475L13.6239 10.265L13.6237 10.2648L13.6184 10.2722L13.4884 10.4522L13.488 10.4519L13.4814 10.4628L13.3314 10.7128L13.3312 10.7127L13.3273 10.7201L13.2273 10.9101L13.21 10.9429V10.98C13.21 10.9856 13.2063 11.0045 13.1815 11.0528C13.1768 11.0619 13.1708 11.0731 13.1641 11.0856C13.1443 11.1223 13.1181 11.1708 13.1007 11.2143C13.0595 11.3174 13.0485 11.3502 13.0277 11.4126C13.0047 11.4814 12.9631 11.6493 12.942 11.7753C12.931 11.8418 12.9286 11.8855 12.9337 11.9261C12.9348 11.9353 12.9362 11.9431 12.9372 11.9487L12.9392 11.9597C12.9395 11.9614 12.9398 11.963 12.9399 11.9657C12.9266 12.1454 12.9267 12.3259 12.94 12.5056V12.85H6.15V12.5053C6.16189 12.3353 6.16189 12.1647 6.15 11.9947V11.9944V11.994V11.9937V11.9933V11.993V11.9926V11.9923V11.9919V11.9916V11.9912V11.9909V11.9905V11.9902V11.9898V11.9895V11.9891V11.9888V11.9884V11.988V11.9877V11.9873V11.987V11.9866V11.9863V11.9859V11.9856V11.9852V11.9849V11.9845V11.9842V11.9838V11.9835V11.9831V11.9828V11.9824V11.9821V11.9817V11.9814V11.981V11.9807V11.9803V11.98V11.9796V11.9793V11.9789V11.9786V11.9782V11.9779V11.9775V11.9772V11.9768V11.9765V11.9761V11.9758V11.9754V11.9751V11.9747V11.9744V11.974V11.9737V11.9733V11.973V11.9726V11.9723V11.9719V11.9716V11.9712V11.9709V11.9705V11.9702V11.9698V11.9695V11.9691V11.9688V11.9684V11.9681V11.9677V11.9674V11.967V11.9667V11.9663V11.966V11.9656V11.9653V11.9649V11.9646V11.9642V11.9639V11.9635V11.9632V11.9628V11.9625V11.9621V11.9618V11.9614V11.9611V11.9607V11.9604V11.96V11.9597V11.9593V11.959V11.9586V11.9583V11.9579V11.9576V11.9572V11.9569V11.9565V11.9562V11.9559V11.9555V11.9552V11.9548V11.9545V11.9541V11.9538V11.9534V11.9531V11.9527V11.9524V11.952V11.9517V11.9513V11.951V11.9506V11.9503V11.9499V11.9496V11.9493V11.9489V11.9486V11.9482V11.9479V11.9475V11.9472V11.9468V11.9465V11.9461V11.9458V11.9454V11.9451V11.9447V11.9444V11.9441V11.9437V11.9434V11.943V11.9427V11.9423V11.942V11.9416V11.9413V11.9409V11.9406V11.9403V11.9399V11.9396V11.9392V11.9389V11.9385V11.9382V11.9378V11.9375V11.9372V11.9368V11.9365V11.9361V11.9358V11.9354V11.9351V11.9347V11.9344V11.9341V11.9337V11.9334V11.933V11.9327V11.9323V11.932V11.9317V11.9313V11.931V11.9306V11.9303V11.9299V11.9296V11.9293V11.9289V11.9286V11.9282V11.9279V11.9275V11.9272V11.9269V11.9265V11.9262V11.9258V11.9255V11.9252V11.9248V11.9245V11.9241V11.9238V11.9234V11.9231V11.9228V11.9224V11.9221V11.9217V11.9214V11.9211V11.9207V11.9204V11.92V11.9197V11.9194V11.919V11.9187V11.9183V11.918V11.9177V11.9173V11.917V11.9167V11.9163V11.916V11.9156V11.9153V11.915V11.9146V11.9143V11.9139V11.9136V11.9133V11.9129V11.9126V11.9123V11.9119V11.9116V11.9113V11.9109V11.9106V11.9102V11.9099V11.9096V11.9092V11.9089V11.9086V11.9082V11.9079V11.9076V11.9072V11.9069V11.9065V11.9062V11.9059V11.9055V11.9052V11.9049V11.9045V11.9042V11.9039V11.9035V11.9032V11.9029V11.9025V11.9022V11.9019V11.9015V11.9012V11.9009V11.9005V11.9002V11.8999V11.8995V11.8992V11.8989V11.8985V11.8982V11.8979V11.8975V11.8972V11.8969V11.8965V11.8962V11.8959V11.8955V11.8952V11.8949V11.8946V11.8942V11.8939V11.8936V11.8932V11.8929V11.8926V11.8922V11.8919V11.8916V11.8913V11.8909V11.8906V11.8903V11.8899V11.8896V11.8893V11.889V11.8886V11.8883V11.888V11.8876V11.8873V11.887V11.8867V11.8863V11.886V11.8857V11.8854V11.885V11.8847V11.8844V11.884V11.8837V11.8834V11.8831V11.8827V11.8824V11.8821V11.8818V11.8814V11.8811V11.8808V11.8805V11.8801V11.8798V11.8795V11.8792V11.8789V11.8785V11.8782V11.8779V11.8776V11.8772V11.8769V11.8766V11.8763V11.8759V11.8756V11.8753V11.875V11.8747V11.8743V11.874V11.8737V11.8734V11.8731V11.8727V11.8724V11.8721V11.8718V11.8715V11.8711V11.8708V11.8705V11.8702V11.8699V11.8695V11.8692V11.8689V11.8686V11.8683V11.8679V11.8676V11.8673V11.867V11.8667V11.8664V11.866V11.8657V11.8654V11.8651V11.8648V11.8645V11.8641V11.8638V11.8635V11.8632V11.8629V11.8626V11.8623V11.8619V11.8616V11.8613V11.861V11.8607V11.8604V11.8601V11.8597V11.8594V11.8591V11.8588V11.8585V11.8582V11.8579V11.8576V11.8572V11.8569V11.8566V11.8563V11.856V11.8557V11.8554V11.8551V11.8548V11.8544V11.8541V11.8538V11.8535V11.8532V11.8529V11.8526V11.8523V11.852V11.8517V11.8514V11.851V11.8507V11.8504V11.8501V11.8498V11.8495V11.8492V11.8489V11.8486V11.8483V11.848V11.8477V11.8474V11.8471V11.8468V11.8464V11.8461V11.8458V11.8455V11.8452V11.8449V11.8446V11.8443V11.844V11.8437V11.8434V11.8431V11.8428V11.8425V11.8422V11.8419V11.8416V11.8413V11.841V11.8407V11.8404V11.8401V11.8398V11.8395V11.8392V11.8389V11.8386V11.8383V11.838V11.8377V11.8374V11.8371V11.8368V11.8365V11.8362V11.8359V11.8356V11.8353V11.835V11.8347V11.8344V11.8341V11.8338V11.8335V11.8332V11.8329V11.8326V11.8324V11.8321V11.8318V11.8315V11.8312V11.8309V11.8306V11.8303V11.83V11.8293C6.15 11.8026 6.15 11.7381 6.13812 11.6638C6.12648 11.591 6.10132 11.4943 6.04131 11.4118C6.01289 11.3727 6.00962 11.3568 6.00821 11.35L6.0081 11.3494C6.00734 11.3458 6.00665 11.3417 6.0056 11.335L6.00517 11.3323C6.00426 11.3264 6.00296 11.318 6.00141 11.3096C5.99735 11.2877 5.99092 11.2614 5.97787 11.2309C5.96617 11.2036 5.95271 11.1694 5.93718 11.13C5.93429 11.1227 5.93132 11.1151 5.92827 11.1074C5.90952 11.0599 5.88849 11.0073 5.86707 10.9591L5.86752 10.9589L5.86168 10.9482L5.74168 10.7282L5.74176 10.7281L5.73914 10.7237L5.60914 10.5037L5.60466 10.4961L5.59931 10.4891L5.43931 10.2791L5.43943 10.279L5.43523 10.274L5.28523 10.094L5.27254 10.0787L5.25632 10.0673L4.99306 9.88207L4.82924 9.73752L4.82962 9.7371L4.81916 9.72937L4.58916 9.55937L4.5894 9.55905L4.5801 9.55318L4.3901 9.43318L4.39028 9.43289L4.38144 9.42811L4.14144 9.29811L4.14 9.29732L4.14 7.50027C4.14 7.50023 4.14 7.50019 4.14 7.50014C4.14261 6.08031 4.70846 4.71953 5.71334 3.71647C6.71823 2.71341 8.08003 2.15003 9.49986 2.15C10.918 2.15261 12.2773 2.71712 13.2801 3.7199C14.2829 4.72271 14.8474 6.08208 14.85 7.50027ZM6.15 18.85V14.15H12.85V18.85H6.15Z" fill="#FF7D0B" stroke="#FF7D0B" stroke-width="0.3"/>
</svg>
