<svg width="39" height="20" viewBox="0 0 39 20" fill="none" xmlns="http://www.w3.org/2000/svg">
<path d="M13.2691 6.47905L14.0076 6.56055C14.1718 6.56055 14.2949 6.47905 14.3359 6.31605L14.5821 4.27862L14.9514 4.52311C15.2796 4.7676 15.4848 5.13434 15.4848 5.54183V7.66076H14.6641C14.5 7.66076 14.3769 7.78301 14.3769 7.946V8.51649H17.5364V7.946C17.5364 7.78301 17.4133 7.66076 17.2491 7.66076H16.4695V5.54183C16.4695 4.80835 16.1003 4.15637 15.5258 3.70814L14.7462 3.13765L15.0745 0.407487C15.0745 0.244492 14.9924 0.122247 14.8283 0.0814978L14.0897 0C13.9256 0 13.8025 0.0814976 13.7614 0.244493L13.1049 6.11231C13.0229 6.31605 13.146 6.4383 13.2691 6.47905Z" fill="#6B14FF"/>
<path d="M4.24205 4.44167C5.42043 4.44167 6.3757 3.49299 6.3757 2.32273C6.3757 1.15248 5.42043 0.203796 4.24205 0.203796C3.06367 0.203796 2.1084 1.15248 2.1084 2.32273C2.1084 3.49299 3.06367 4.44167 4.24205 4.44167Z" fill="#6B14FF"/>
<path d="M10.1507 12.2246C10.1096 11.7356 9.65828 11.3688 9.1659 11.3688H6.62193L6.37574 7.90521C7.07328 8.31269 7.89392 8.55719 8.71455 8.55719H10.5199C10.9713 8.55719 11.3406 8.19045 11.3406 7.74221C11.3406 7.29398 10.9713 6.92724 10.5199 6.92724H8.71455C8.14011 6.92724 7.6067 6.76424 7.11431 6.43825L5.47305 5.37878C5.14479 5.17504 4.77551 5.0528 4.40622 5.0528H4.119C3.54456 5.0528 3.01114 5.29729 2.64186 5.74552C2.27257 6.19376 2.10845 6.76424 2.19051 7.33472L3.01114 12.5506C3.09321 13.0395 3.50352 13.3655 3.9959 13.3655H8.34527L8.91971 18.7444C8.96074 19.2334 9.41209 19.6001 9.90447 19.6001C9.9455 19.6001 9.98653 19.6001 10.0276 19.6001C10.561 19.5593 10.9713 19.0704 10.8892 18.5406L10.1507 12.2246Z" fill="#6B14FF"/>
<path d="M6.95017 14.099H3.6266C2.88803 14.099 2.27256 13.5693 2.14946 12.8358L1.2878 7.33474C1.24676 6.96801 0.877479 6.72351 0.549225 6.80501C0.17994 6.84576 -0.0662503 7.2125 0.0158131 7.53849L0.877479 13.0396C1.08264 14.425 2.27256 15.403 3.66764 15.403H6.99121C7.36049 15.403 7.64771 15.1178 7.64771 14.751C7.64771 14.3843 7.31946 14.099 6.95017 14.099Z" fill="#6B14FF"/>
<path d="M24.5938 7.94603C24.5938 7.78303 24.4707 7.66078 24.3066 7.66078H23.486V5.54185C23.486 5.13436 23.6911 4.76763 24.0194 4.52313L24.3887 4.27864L24.6349 6.31608C24.6349 6.47907 24.799 6.56057 24.9631 6.56057L25.7017 6.47907C25.8658 6.47907 25.9479 6.31608 25.9479 6.15308L25.2914 0.285264C25.2914 0.122269 25.1272 0.0407715 24.9631 0.0407715L24.2245 0.122269C24.0604 0.122269 23.9784 0.285264 23.9784 0.448259L24.3066 3.17842L23.4449 3.74891C22.8295 4.15639 22.5012 4.84912 22.5012 5.5826V7.70153H21.7216C21.5575 7.70153 21.4344 7.82378 21.4344 7.98678V8.55726H24.5938V7.94603Z" fill="#6B14FF"/>
<path d="M34.6876 4.44167C35.866 4.44167 36.8212 3.49299 36.8212 2.32273C36.8212 1.15248 35.866 0.203796 34.6876 0.203796C33.5092 0.203796 32.5539 1.15248 32.5539 2.32273C32.5539 3.49299 33.5092 4.44167 34.6876 4.44167Z" fill="#6B14FF"/>
<path d="M35.0159 13.3248C35.5082 13.3248 35.9185 12.958 36.0006 12.5098L36.8212 7.29395C36.9033 6.72347 36.7392 6.15299 36.3699 5.70475C36.0006 5.25652 35.4672 5.01202 34.8928 5.01202H34.6055C34.1952 5.01202 33.8259 5.13427 33.5387 5.33802L31.8974 6.39748C31.4051 6.72347 30.8716 6.88647 30.2972 6.88647H28.4918C28.0405 6.88647 27.6712 7.25321 27.6712 7.70144C27.6712 8.14968 28.0405 8.51642 28.4918 8.51642H30.2972C31.1178 8.51642 31.9385 8.27192 32.636 7.86444L32.3898 11.3281H29.8459C29.3535 11.3281 28.9021 11.6948 28.8611 12.1838L28.1636 18.4184C28.1225 18.9481 28.4918 19.4371 29.0252 19.4778C29.0663 19.4778 29.1073 19.4778 29.1483 19.4778C29.6407 19.4778 30.092 19.1111 30.1331 18.6221L30.7075 13.2433L35.0159 13.3248Z" fill="#6B14FF"/>
<path d="M38.3804 6.80498C38.0111 6.76423 37.6829 7.00872 37.6419 7.33471L36.7802 12.8358C36.6571 13.5693 36.0416 14.099 35.303 14.099H31.9795C31.6102 14.099 31.323 14.3842 31.323 14.751C31.323 15.1177 31.6102 15.403 31.9795 15.403H35.303C36.6981 15.403 37.888 14.425 38.0932 13.0395L38.9549 7.53846C38.9959 7.21247 38.7497 6.84573 38.3804 6.80498Z" fill="#6B14FF"/>
<path d="M25.9068 18.3777H24.5938V10.6354H30.2972C30.6665 10.6354 30.9537 10.3502 30.9537 9.98346C30.9537 9.61672 30.6665 9.33148 30.2972 9.33148H8.63246C8.26317 9.33148 7.97595 9.61672 7.97595 9.98346C7.97595 10.3502 8.26317 10.6354 8.63246 10.6354H14.3359V18.3777H13.0229C12.6536 18.3777 12.3663 18.6629 12.3663 19.0297C12.3663 19.3964 12.6536 19.6817 13.0229 19.6817H25.9478C26.3171 19.6817 26.6043 19.3964 26.6043 19.0297C26.6043 18.6629 26.2761 18.3777 25.9068 18.3777Z" fill="#6B14FF"/>
</svg>
