<svg width="25" height="25" viewBox="0 0 25 25" fill="none" xmlns="http://www.w3.org/2000/svg">
<path d="M24.225 4.0424L20.925 0.768803C20.725 0.570403 20.4 0.570403 20.2 0.768803L12.55 8.3824L9.775 5.6048C7.975 3.844 5.725 2.6288 3.25 2.108L2.575 1.9592C2.4 1.9344 2.225 1.984 2.1 2.0832C2 2.2072 1.925 2.3808 1.975 2.5544L2.125 3.224C2.65 5.6792 3.875 7.9112 5.675 9.6968L8.45 12.4496L0.775 20.0632C0.575 20.2616 0.575 20.584 0.775 20.7824L4.075 24.056C4.175 24.1552 4.3 24.2048 4.425 24.2048C4.55 24.2048 4.675 24.1552 4.775 24.056L12.45 16.4424L17.8 21.7496C18.1 22.0472 18.525 22.2208 18.925 22.2208C19.05 22.2208 19.175 22.196 19.3 22.1712L20.4 23.2624C20.675 23.5352 21.025 23.6592 21.375 23.6592C21.725 23.6592 22.075 23.5352 22.35 23.2624L23.45 22.196C23.975 21.6752 23.975 20.8072 23.45 20.2864L22.35 19.1952C22.475 18.6744 22.35 18.104 21.925 17.7072L16.55 12.3504L24.225 4.7368C24.425 4.5384 24.425 4.2408 24.225 4.0424ZM6.8 4.588L4.625 6.7456C3.925 5.6296 3.425 4.3896 3.15 3.1C4.425 3.3976 5.675 3.8936 6.8 4.588ZM4.425 22.9648L1.85 20.4104L2.725 19.5424L3.825 20.6336C3.925 20.7328 4.05 20.7824 4.175 20.7824C4.3 20.7824 4.425 20.7328 4.525 20.6336C4.725 20.4352 4.725 20.1128 4.525 19.9144L3.425 18.848L4.325 17.9552L5.425 19.0464C5.525 19.1456 5.65 19.1952 5.775 19.1952C5.9 19.1952 6.025 19.1456 6.125 19.0464C6.325 18.848 6.325 18.5256 6.125 18.3272L5.025 17.236L5.925 16.3432L7.025 17.4344C7.125 17.5336 7.25 17.5832 7.375 17.5832C7.5 17.5832 7.625 17.5336 7.725 17.4344C7.925 17.236 7.925 16.9136 7.725 16.7152L6.625 15.624L7.525 14.7312L8.625 15.8224C8.725 15.9216 8.85 15.9712 8.975 15.9712C9.1 15.9712 9.225 15.9216 9.325 15.8224C9.525 15.624 9.525 15.3016 9.325 15.1032L8.225 14.012L9.125 13.1192L11.7 15.6736L4.425 22.9648ZM6.375 8.9776C5.95 8.556 5.55 8.0848 5.175 7.5888L6.05 6.7208L19.875 20.4352L19.3 21.0056C19.075 21.2288 18.7 21.2288 18.5 21.0056L6.375 8.9776ZM22.725 21.452L21.65 22.5184C21.525 22.6672 21.3 22.6672 21.15 22.5184L20.2 21.576L21.8 19.9888L22.75 20.9312C22.85 21.1048 22.85 21.328 22.725 21.452ZM21.375 18.7736C21.375 18.9224 21.325 19.0712 21.2 19.1704L20.625 19.7408L6.775 6.0264L7.65 5.1584C8.15 5.5056 8.6 5.9024 9.05 6.3488L21.2 18.4016C21.3 18.476 21.375 18.6248 21.375 18.7736ZM15.85 11.6312L13.275 9.0768L14.175 8.184L15.275 9.2752C15.375 9.3744 15.5 9.424 15.625 9.424C15.75 9.424 15.875 9.3744 15.975 9.2752C16.175 9.0768 16.175 8.7544 15.975 8.556L14.875 7.4648L15.775 6.572L16.875 7.6632C16.975 7.7624 17.1 7.812 17.225 7.812C17.35 7.812 17.475 7.7624 17.575 7.6632C17.775 7.4648 17.775 7.1424 17.575 6.944L16.5 5.8776L17.4 4.9848L18.5 6.076C18.6 6.1752 18.725 6.2248 18.85 6.2248C18.975 6.2248 19.1 6.1752 19.2 6.076C19.4 5.8776 19.4 5.5552 19.2 5.3568L18.1 4.2656L19 3.3728L20.1 4.464C20.2 4.5632 20.325 4.6128 20.45 4.6128C20.575 4.6128 20.7 4.5632 20.8 4.464C21 4.2656 21 3.9432 20.8 3.7448L19.7 2.6536L20.575 1.7856L23.15 4.34L15.85 11.6312Z" fill="#FFC730"/>
</svg>
