<svg width="25" height="23" viewBox="0 0 25 23" fill="none" xmlns="http://www.w3.org/2000/svg">
<path d="M3.91835 17.6509H15.5775C15.6955 17.6509 15.8088 17.6044 15.8925 17.5212C15.9762 17.4381 16.0235 17.3251 16.0235 17.207C16.0235 17.0889 15.9762 16.9759 15.8925 16.8928C15.8088 16.8096 15.6955 16.7631 15.5775 16.7631H3.91835C3.80042 16.7631 3.68712 16.8096 3.60341 16.8928C3.51967 16.9759 3.47244 17.0889 3.47244 17.207C3.47244 17.3251 3.51967 17.4381 3.60341 17.5212C3.68712 17.6044 3.80042 17.6509 3.91835 17.6509Z" fill="#3B4FFF" stroke="#3B4FFF" stroke-width="0.3"/>
<path d="M11.0204 19.9109H13.5831H13.586V19.9108C13.7029 19.9101 13.815 19.8636 13.898 19.7812C13.9817 19.698 14.029 19.585 14.029 19.467C14.029 19.3489 13.9817 19.2359 13.898 19.1527C13.8143 19.0696 13.701 19.0231 13.5831 19.0231H11.0204C10.9025 19.0231 10.7892 19.0696 10.7055 19.1527C10.6217 19.2359 10.5745 19.3489 10.5745 19.467C10.5745 19.585 10.6217 19.698 10.7055 19.7812C10.7892 19.8643 10.9025 19.9109 11.0204 19.9109Z" fill="#3B4FFF" stroke="#3B4FFF" stroke-width="0.3"/>
<path d="M5.04873 15.9582H15.5775C15.6954 15.9582 15.8087 15.9116 15.8924 15.8285C15.9762 15.7454 16.0234 15.6323 16.0234 15.5143C16.0234 15.3962 15.9762 15.2832 15.8924 15.2C15.8087 15.1169 15.6954 15.0704 15.5775 15.0704H5.04873C4.93079 15.0704 4.81749 15.1169 4.73378 15.2C4.65004 15.2832 4.60281 15.3962 4.60281 15.5143C4.60281 15.6323 4.65004 15.7454 4.73378 15.8285C4.81749 15.9116 4.93079 15.9582 5.04873 15.9582Z" fill="#3B4FFF" stroke="#3B4FFF" stroke-width="0.3"/>
<path d="M16.2691 21.3126L16.269 21.3126C16.2667 21.4291 16.2184 21.5398 16.1349 21.621C16.0515 21.7023 15.9395 21.7475 15.8231 21.7475C15.8231 21.7475 15.8231 21.7475 15.8231 21.7475L1.70841 21.7475C1.70833 21.7475 1.70824 21.7475 1.70816 21.7475H1.70783V21.5975C1.52833 21.5982 1.35116 21.5571 1.19056 21.4775C1.02995 21.3979 0.890377 21.282 0.783044 21.1391C0.675711 20.9962 0.603608 20.8303 0.572523 20.6548C0.541438 20.4792 0.552237 20.2988 0.604054 20.1281L16.2691 21.3126ZM16.2691 21.3126V21.3095V13.6687C16.2691 13.5507 16.2218 13.4376 16.1381 13.3545C16.0544 13.2714 15.9411 13.2248 15.8231 13.2248H2.85274C2.75462 13.2217 2.65807 13.2508 2.57815 13.308C2.49744 13.3657 2.43829 13.4487 2.41031 13.5439C2.41028 13.544 2.41024 13.5441 2.4102 13.5443L0.460523 20.0846C0.460484 20.0847 0.460445 20.0848 0.460406 20.085L16.2691 21.3126ZM1.31494 20.3448L1.31497 20.3448L1.31598 20.3414L3.17203 14.1067H15.3743V20.8598L1.70487 20.8598L1.70408 20.8598C1.64009 20.8601 1.57696 20.8455 1.51982 20.8171C1.46268 20.7887 1.41318 20.7474 1.37525 20.6967L1.37526 20.6967L1.37463 20.6958C1.33705 20.6462 1.31206 20.5885 1.30169 20.5274C1.29132 20.4664 1.29586 20.4037 1.31494 20.3448Z" fill="#3B4FFF" stroke="#3B4FFF" stroke-width="0.3"/>
<path d="M12.161 2.39272L12.161 2.39273H12.1626C12.1954 2.39273 12.2266 2.40566 12.2494 2.42835C12.2722 2.451 12.2848 2.48151 12.2848 2.5131L12.2849 2.51471C12.2851 2.53898 12.2781 2.56285 12.2646 2.5833C12.2511 2.60376 12.2316 2.61992 12.2085 2.62954C12.1855 2.63917 12.16 2.64178 12.1354 2.63698C12.1108 2.63219 12.0883 2.62025 12.0708 2.60284C12.0532 2.58545 12.0415 2.5634 12.0368 2.53956C12.0321 2.51572 12.0346 2.49102 12.0441 2.46857C12.0536 2.4461 12.0697 2.42678 12.0905 2.41321C12.1114 2.39963 12.1359 2.39245 12.161 2.39272ZM11.5975 3.35571C11.7652 3.46625 11.962 3.52484 12.1631 3.52416C12.4319 3.52325 12.6896 3.41657 12.8797 3.22717C13.0698 3.03774 13.1767 2.78098 13.1767 2.5131C13.1767 2.31275 13.1168 2.11699 13.0048 1.95062C12.8927 1.78427 12.7336 1.65483 12.5477 1.57853C12.3618 1.50224 12.1573 1.48247 11.9601 1.52168C11.763 1.56089 11.5818 1.65736 11.4396 1.79903C11.2975 1.94071 11.2007 2.12122 11.1618 2.31778C11.1228 2.51434 11.1435 2.71794 11.2212 2.90275C11.2988 3.08755 11.4298 3.24515 11.5975 3.35571Z" fill="#3B4FFF" stroke="#3B4FFF" stroke-width="0.3"/>
<path d="M12.0217 5.02488L12.0215 5.02515L8.8585 8.16338C8.85844 8.16344 8.85837 8.1635 8.85831 8.16357C8.79545 8.22555 8.75246 8.30484 8.73497 8.3914C8.71747 8.47805 8.72635 8.5679 8.76045 8.64945C8.79454 8.731 8.85224 8.80044 8.92603 8.84906C8.99981 8.89766 9.08639 8.92328 9.17473 8.92277L9.17386 8.77278L9.17448 8.92277C9.23333 8.92253 9.29158 8.91069 9.34585 8.88792L9.28781 8.7496L9.34585 8.88792C9.39987 8.86525 9.44891 8.83219 9.49014 8.79057L12.6501 5.65243L12.6504 5.65212C12.7336 5.56903 12.7804 5.45641 12.7804 5.33881C12.7804 5.22121 12.7336 5.1086 12.6504 5.02551L12.6504 5.02551L12.6498 5.02488C12.5661 4.94233 12.4532 4.89617 12.3357 4.89617C12.2183 4.89617 12.1054 4.94233 12.0217 5.02488Z" fill="#3B4FFF" stroke="#3B4FFF" stroke-width="0.3"/>
<path d="M9.00435 11.8908L9.0031 11.8908C8.91476 11.8913 8.82818 11.8657 8.7544 11.8171C8.68061 11.7685 8.62291 11.6991 8.58882 11.6175C8.55472 11.536 8.54584 11.4461 8.56334 11.3595C8.58082 11.2729 8.62379 11.1937 8.68662 11.1317C8.6867 11.1316 8.68678 11.1315 8.68687 11.1314L15.0102 4.85171L15.0105 4.85139C15.0941 4.76884 15.2071 4.72268 15.3245 4.72268C15.4419 4.72268 15.5548 4.76879 15.6384 4.85127L9.00435 11.8908ZM9.00435 11.8908C9.12135 11.8892 9.23318 11.8418 9.31554 11.7586L9.00435 11.8908Z" fill="#3B4FFF" stroke="#3B4FFF" stroke-width="0.3"/>
<path d="M11.9902 11.7175C12.049 11.7182 12.1073 11.7073 12.1619 11.6855C12.2169 11.6635 12.2671 11.6307 12.3093 11.5891L12.3098 11.5886L15.4672 8.45005C15.4672 8.45004 15.4672 8.45002 15.4672 8.45C15.5088 8.40874 15.5418 8.35969 15.5643 8.30563C15.5869 8.25156 15.5985 8.19356 15.5985 8.13497C15.5985 8.07638 15.5869 8.01838 15.5643 7.96431C15.5418 7.91023 15.5088 7.86116 15.4672 7.81988C15.4256 7.7786 15.3763 7.74591 15.3222 7.72363C15.268 7.70135 15.21 7.68989 15.1514 7.68989C15.0928 7.68989 15.0348 7.70135 14.9806 7.72363C14.9264 7.74591 14.8772 7.7786 14.8356 7.81988L14.8355 7.81993L11.6751 10.9615L11.6749 10.9618C11.5917 11.0448 11.5448 11.1575 11.5448 11.2751C11.5448 11.3927 11.5917 11.5053 11.6749 11.5884L11.6756 11.5891C11.7173 11.6302 11.7667 11.6626 11.821 11.6846C11.8747 11.7065 11.9322 11.7176 11.9902 11.7175ZM11.9902 11.7175C11.9897 11.7175 11.9892 11.7175 11.9886 11.7174L11.991 11.5675L11.9918 11.7175C11.9913 11.7175 11.9908 11.7175 11.9902 11.7175Z" fill="#3B4FFF" stroke="#3B4FFF" stroke-width="0.3"/>
<path d="M2.3923 1.80752V1.80783V13.6746C2.3923 13.7927 2.43953 13.9057 2.52327 13.9888C2.60697 14.072 2.72028 14.1185 2.83822 14.1185H15.8198C15.8787 14.1209 15.9375 14.1116 15.9928 14.0912C16.0494 14.0703 16.1012 14.0382 16.1451 13.9968L16.042 13.8878C16.0711 13.8603 16.0942 13.8272 16.11 13.7906C16.1258 13.7539 16.1339 13.7145 16.1338 13.6746H16.2838V13.6744V7.89461C16.2845 7.80113 16.3223 7.71148 16.3893 7.64525C16.4565 7.57892 16.5476 7.5415 16.6428 7.5415H21.487C21.6049 7.5415 21.7182 7.49499 21.8019 7.41186C21.8857 7.3287 21.9329 7.21568 21.9329 7.09762V1.80783V1.80752C21.932 1.38973 21.7645 0.989513 21.4674 0.69441C21.1703 0.399342 20.7678 0.23338 20.348 0.232523H20.3477L3.9775 0.232522L3.9772 0.232523C3.55745 0.23338 3.15494 0.399342 2.85782 0.69441C2.56067 0.989513 2.39316 1.38973 2.3923 1.80752ZM15.3772 7.8907V7.89109V13.2307H3.28413V1.80517C3.28484 1.6233 3.35789 1.44886 3.48771 1.31994C3.61757 1.19098 3.7937 1.11804 3.97778 1.11734H20.3474C20.5315 1.11804 20.7076 1.19098 20.8375 1.31994C20.9674 1.44892 21.0404 1.62346 21.0411 1.80542V6.65081H16.6438C16.4789 6.64874 16.3152 6.6791 16.1621 6.74017C16.0087 6.80137 15.869 6.8922 15.751 7.00745C15.6331 7.12272 15.5393 7.26012 15.4751 7.41174C15.4109 7.56336 15.3776 7.72616 15.3772 7.8907Z" fill="#3B4FFF" stroke="#3B4FFF" stroke-width="0.3"/>
<path d="M23.3927 22.5675L23.3931 22.5675C23.7114 22.5666 24.0165 22.4405 24.2416 22.2163C24.4666 21.9922 24.5932 21.6883 24.5932 21.3713V9.3429C24.5932 9.02589 24.4666 8.72203 24.2416 8.49787C24.0165 8.27375 23.7114 8.14758 23.3931 8.14669H23.3927L16.5866 8.14669L16.5862 8.14669C16.2679 8.14758 15.9628 8.27375 15.7377 8.49787C15.5127 8.72203 15.3861 9.02589 15.3861 9.3429V21.3713C15.3861 21.6883 15.5127 21.9922 15.7377 22.2163L15.8436 22.11L15.7377 22.2163C15.9628 22.4405 16.2679 22.5666 16.5862 22.5675H16.5866L23.3927 22.5675ZM16.5856 9.04914L16.5869 9.04914L23.3868 9.03445C23.3868 9.03445 23.3869 9.03445 23.387 9.03445C23.4277 9.03447 23.4681 9.04249 23.5057 9.05803C23.5434 9.07359 23.5775 9.09637 23.6061 9.12499C23.6348 9.15362 23.6574 9.18753 23.6727 9.22475C23.688 9.26196 23.6957 9.30178 23.6955 9.34192V9.3429L23.6955 21.3713L23.6955 21.3723C23.6957 21.4124 23.688 21.4522 23.6727 21.4895C23.6574 21.5267 23.6348 21.5606 23.6061 21.5892C23.5775 21.6178 23.5434 21.6406 23.5057 21.6562C23.4681 21.6717 23.4276 21.6798 23.3868 21.6798H16.5812C16.4987 21.6791 16.42 21.6462 16.3622 21.5884C16.3043 21.5305 16.272 21.4524 16.272 21.3713V9.34556C16.2751 9.26626 16.309 9.19099 16.367 9.13563C16.4255 9.07972 16.5039 9.04858 16.5856 9.04914ZM23.8455 21.3713V9.3429L23.7122 21.6953C23.7548 21.6527 23.7885 21.6021 23.8114 21.5465C23.8343 21.4909 23.8459 21.4314 23.8455 21.3713Z" fill="#3B4FFF" stroke="#3B4FFF" stroke-width="0.3"/>
<path d="M18.806 8.29096H20.5075C20.6255 8.29096 20.7388 8.24445 20.8225 8.16132C20.9062 8.07816 20.9534 7.96514 20.9534 7.84708C20.9534 7.72903 20.9062 7.61601 20.8225 7.53285C20.7388 7.44972 20.6255 7.40321 20.5075 7.40321H18.806C18.6881 7.40321 18.5747 7.44972 18.491 7.53285C18.4073 7.61601 18.3601 7.72903 18.3601 7.84708C18.3601 7.96514 18.4073 8.07816 18.491 8.16132C18.5747 8.24445 18.6881 8.29096 18.806 8.29096Z" fill="#3B4FFF" stroke="#3B4FFF" stroke-width="0.3"/>
<path d="M21.1704 8.24383C21.3895 8.24383 21.569 8.06712 21.569 7.84697C21.569 7.62682 21.3895 7.45011 21.1704 7.45011C20.9512 7.45011 20.7718 7.62681 20.7718 7.84697C20.7718 8.06713 20.9512 8.24383 21.1704 8.24383Z" fill="#3B4FFF" stroke="#3B4FFF" stroke-width="0.3"/>
<path d="M16.5866 20.325C16.4652 20.3242 16.349 20.276 16.2631 20.1907C16.1773 20.1055 16.1287 19.9901 16.1279 19.8695M16.5866 20.325H23.3927C23.5144 20.325 23.631 20.277 23.717 20.1916C23.8031 20.1062 23.8514 19.9903 23.8514 19.8695V7.84696C23.8518 7.78689 23.8402 7.72734 23.8173 7.67174C23.7944 7.61613 23.7607 7.56557 23.7181 7.52296M16.5866 20.325L16.5875 20.175C16.5874 20.175 16.5873 20.175 16.5871 20.175M16.5866 20.325V20.175H16.5871M23.7181 7.52296C23.6755 7.48035 23.6248 7.44653 23.5689 7.42346C23.5131 7.40038 23.4532 7.3885 23.3927 7.38851M23.7181 7.52296L23.612 7.62905C23.5834 7.60042 23.5493 7.57765 23.5116 7.56209C23.474 7.54654 23.4336 7.53852 23.3928 7.53851L23.3927 7.38851M23.7181 7.52296L23.6121 7.62905C23.6407 7.65768 23.6633 7.69159 23.6786 7.72881C23.6939 7.76602 23.7016 7.80584 23.7014 7.84598V7.84696V19.8695C23.7014 19.9502 23.6691 20.0278 23.6113 20.0851C23.5535 20.1426 23.4749 20.175 23.3927 20.175H16.5871M23.3927 7.38851L16.5866 7.39438M23.3927 7.38851L23.3927 7.53851L16.5875 7.54438L16.5866 7.39438M16.5866 7.39438C16.4647 7.39516 16.348 7.4438 16.2621 7.52969C16.1761 7.61559 16.1279 7.73175 16.1279 7.85283V19.8695M16.5866 7.39438L16.5867 7.54438L16.5872 7.54438C16.5047 7.54501 16.426 7.57797 16.3681 7.63579C16.3102 7.69365 16.2779 7.7717 16.2779 7.85283L16.2779 7.85283L16.2779 19.869M16.1279 19.8695H16.2779V19.869M16.1279 19.8695L16.2779 19.8685C16.2779 19.8687 16.2779 19.8688 16.2779 19.869M16.2779 19.869C16.2785 19.9496 16.3111 20.027 16.3688 20.0843C16.4266 20.1417 16.505 20.1744 16.5871 20.175M16.5866 6.65075L16.5862 6.65075C16.2679 6.65164 15.9628 6.77781 15.7377 7.00193C15.5127 7.22609 15.3861 7.52995 15.3861 7.84696V19.8695C15.3861 20.1863 15.5128 20.4899 15.7381 20.7136C15.9633 20.9373 16.2685 21.0628 16.5866 21.0628H23.3927C23.5502 21.0628 23.7062 21.0319 23.8518 20.9721C23.9974 20.9122 24.1297 20.8244 24.2412 20.7136C24.3528 20.6029 24.4413 20.4713 24.5017 20.3265C24.5621 20.1816 24.5932 20.0263 24.5932 19.8695V7.84696C24.5932 7.52995 24.4666 7.22609 24.2416 7.00193C24.0165 6.77781 23.7114 6.65164 23.3931 6.65075H23.3927L16.5866 6.65075Z" fill="#3B4FFF" stroke="#3B4FFF" stroke-width="0.3"/>
</svg>
