<svg width="27" height="18" viewBox="0 0 27 18" fill="none" xmlns="http://www.w3.org/2000/svg">
<path d="M24.8906 6.90005V3.07505C24.8908 2.77554 24.8124 2.48131 24.6633 2.22217C24.5142 1.96304 24.2998 1.74822 24.0417 1.59948C23.7837 1.45075 23.4912 1.37338 23.1939 1.37523C22.8966 1.37708 22.605 1.45808 22.3488 1.61002C22.3007 1.17829 22.0903 0.781519 21.7609 0.50116C21.4315 0.2208 21.008 0.0781336 20.5774 0.102453C20.1468 0.126772 19.7419 0.316231 19.4456 0.631929C19.1493 0.947628 18.9843 1.36561 18.9844 1.80005V6.90005H8.01562V1.80005C8.0151 1.36601 7.8498 0.948621 7.55361 0.633421C7.25741 0.318222 6.85276 0.12909 6.4226 0.104792C5.99243 0.0804938 5.56933 0.22287 5.24002 0.502737C4.9107 0.782605 4.70012 1.17877 4.65144 1.61002C4.39522 1.45802 4.10366 1.37696 3.80632 1.37508C3.50898 1.3732 3.21643 1.45055 2.95834 1.59929C2.70024 1.74804 2.48578 1.96288 2.33668 2.22205C2.18759 2.48122 2.10917 2.7755 2.10938 3.07505V6.90005C1.66182 6.90005 1.2326 7.07915 0.916132 7.39797C0.599665 7.71678 0.421875 8.14918 0.421875 8.60005C0.421875 9.05092 0.599665 9.48332 0.916132 9.80213C1.2326 10.1209 1.66182 10.3 2.10938 10.3V14.125C2.10917 14.4246 2.18759 14.7189 2.33668 14.978C2.48578 15.2372 2.70024 15.4521 2.95834 15.6008C3.21643 15.7495 3.50898 15.8269 3.80632 15.825C4.10366 15.8231 4.39522 15.7421 4.65144 15.5901C4.70012 16.0213 4.9107 16.4175 5.24002 16.6974C5.56933 16.9772 5.99243 17.1196 6.4226 17.0953C6.85276 17.071 7.25741 16.8819 7.55361 16.5667C7.8498 16.2515 8.0151 15.8341 8.01562 15.4V10.3H18.9844V15.4C18.9843 15.8345 19.1493 16.2525 19.4456 16.5682C19.7419 16.8839 20.1468 17.0733 20.5774 17.0976C21.008 17.122 21.4315 16.9793 21.7609 16.6989C22.0903 16.4186 22.3007 16.0218 22.3488 15.5901C22.605 15.742 22.8966 15.823 23.1939 15.8249C23.4912 15.8267 23.7837 15.7493 24.0417 15.6006C24.2998 15.4519 24.5142 15.2371 24.6633 14.9779C24.8124 14.7188 24.8908 14.4246 24.8906 14.125V10.3C25.3382 10.3 25.7674 10.1209 26.0839 9.80213C26.4003 9.48332 26.5781 9.05092 26.5781 8.60005C26.5781 8.14918 26.4003 7.71678 26.0839 7.39797C25.7674 7.07915 25.3382 6.90005 24.8906 6.90005ZM2.10938 9.45005C1.8856 9.45005 1.67099 9.3605 1.51275 9.20109C1.35452 9.04168 1.26562 8.82548 1.26562 8.60005C1.26562 8.37461 1.35452 8.15841 1.51275 7.99901C1.67099 7.8396 1.8856 7.75005 2.10938 7.75005V9.45005ZM3.79688 14.975C3.57318 14.9748 3.35872 14.8851 3.20055 14.7258C3.04237 14.5664 2.95339 14.3504 2.95312 14.125V3.07505C2.95312 2.84961 3.04202 2.63341 3.20025 2.47401C3.35849 2.3146 3.5731 2.22505 3.79688 2.22505C4.02065 2.22505 4.23526 2.3146 4.3935 2.47401C4.55173 2.63341 4.64062 2.84961 4.64062 3.07505V14.125C4.64036 14.3504 4.55138 14.5664 4.3932 14.7258C4.23503 14.8851 4.02057 14.9748 3.79688 14.975ZM7.17188 15.4C7.17188 15.6255 7.08298 15.8417 6.92475 16.0011C6.76651 16.1605 6.5519 16.25 6.32812 16.25C6.10435 16.25 5.88974 16.1605 5.7315 16.0011C5.57327 15.8417 5.48438 15.6255 5.48438 15.4V1.80005C5.48438 1.57461 5.57327 1.35841 5.7315 1.19901C5.88974 1.0396 6.10435 0.950047 6.32812 0.950047C6.5519 0.950047 6.76651 1.0396 6.92475 1.19901C7.08298 1.35841 7.17188 1.57461 7.17188 1.80005V15.4ZM8.01562 9.45005V7.75005H18.9844V9.45005H8.01562ZM21.5156 15.4C21.5156 15.6255 21.4267 15.8417 21.2685 16.0011C21.1103 16.1605 20.8957 16.25 20.6719 16.25C20.4481 16.25 20.2335 16.1605 20.0753 16.0011C19.917 15.8417 19.8281 15.6255 19.8281 15.4V1.80005C19.8281 1.57461 19.917 1.35841 20.0753 1.19901C20.2335 1.0396 20.4481 0.950047 20.6719 0.950047C20.8957 0.950047 21.1103 1.0396 21.2685 1.19901C21.4267 1.35841 21.5156 1.57461 21.5156 1.80005V15.4ZM24.0469 14.125C24.0469 14.3505 23.958 14.5667 23.7997 14.7261C23.6415 14.8855 23.4269 14.975 23.2031 14.975C22.9793 14.975 22.7647 14.8855 22.6065 14.7261C22.4483 14.5667 22.3594 14.3505 22.3594 14.125V3.07505C22.3594 2.84961 22.4483 2.63341 22.6065 2.47401C22.7647 2.3146 22.9793 2.22505 23.2031 2.22505C23.4269 2.22505 23.6415 2.3146 23.7997 2.47401C23.958 2.63341 24.0469 2.84961 24.0469 3.07505V14.125ZM24.8906 9.45005V7.75005C25.1144 7.75005 25.329 7.8396 25.4872 7.99901C25.6455 8.15841 25.7344 8.37461 25.7344 8.60005C25.7344 8.82548 25.6455 9.04168 25.4872 9.20109C25.329 9.3605 25.1144 9.45005 24.8906 9.45005Z" fill="#1B6BFF"/>
</svg>
