<svg width="21" height="21" viewBox="0 0 21 21" fill="none" xmlns="http://www.w3.org/2000/svg">
<mask id="path-1-outside-1_1_540" maskUnits="userSpaceOnUse" x="0" y="0" width="21" height="21" fill="black">
<rect fill="white" width="21" height="21"/>
<path d="M1.77312 19.2337C2.01564 19.4774 2.30392 19.6707 2.6214 19.8027C2.93888 19.9347 3.27931 20.0026 3.62312 20.0026C3.96693 20.0026 4.30735 19.9347 4.62483 19.8027C4.94231 19.6707 5.23059 19.4774 5.47312 19.2337L10.4731 14.2337L15.4731 19.2337C15.7142 19.4794 16.0022 19.6741 16.32 19.8064C16.6378 19.9387 16.9789 20.0058 17.3231 20.0037C17.8405 20.0026 18.3461 19.8484 18.776 19.5605C19.2059 19.2725 19.5409 18.8637 19.7387 18.3856C19.9366 17.9075 19.9885 17.3815 19.8878 16.874C19.7872 16.3664 19.5385 15.9001 19.1731 15.5337L15.5231 11.8837C16.1361 11.7373 16.7206 11.4906 17.2531 11.1537C18.0029 10.6939 18.6334 10.0634 19.0931 9.31367C19.5455 8.6328 19.8278 7.85335 19.9166 7.04075C20.0053 6.22815 19.8978 5.40612 19.6031 4.64367C19.5734 4.56525 19.5251 4.49519 19.4624 4.43947C19.3997 4.38375 19.3245 4.34402 19.2431 4.32367C19.1593 4.30905 19.0732 4.31409 18.9916 4.33838C18.9101 4.36268 18.8353 4.40556 18.7731 4.46367L16.2931 7.00367H14.0031V4.71367L16.5431 2.17367C16.6012 2.1115 16.6441 2.03669 16.6684 1.95514C16.6927 1.87358 16.6977 1.7875 16.6831 1.70367C16.6628 1.6223 16.623 1.54707 16.5673 1.48438C16.5116 1.4217 16.4415 1.37342 16.3631 1.34367C15.6007 1.04896 14.7786 0.941461 13.966 1.0302C13.1534 1.11894 12.374 1.40134 11.6931 1.85367C10.9433 2.31342 10.3129 2.9439 9.85312 3.69367C9.24857 4.61833 8.95112 5.71014 9.00312 6.81367L6.00312 3.75367L6.39312 3.35367C6.4531 3.29294 6.49654 3.21786 6.5193 3.13559C6.54206 3.05332 6.54337 2.96659 6.52312 2.88367C6.5056 2.8022 6.46673 2.72685 6.4105 2.66535C6.35427 2.60385 6.2827 2.5584 6.20312 2.53367L3.20312 1.53367C3.11396 1.50252 3.0178 1.49725 2.92577 1.51849C2.83374 1.53973 2.74961 1.5866 2.68312 1.65367L1.68312 2.65367C1.6179 2.71926 1.57215 2.80165 1.55097 2.89169C1.52978 2.98173 1.53399 3.07588 1.56312 3.16367L2.56312 6.16367C2.59152 6.24395 2.6392 6.31602 2.70197 6.37356C2.76474 6.4311 2.84068 6.47234 2.92312 6.49367C3.00685 6.51368 3.09438 6.51127 3.17689 6.4867C3.2594 6.46212 3.33398 6.41624 3.39312 6.35367L3.75312 6.00367L7.54312 9.79367L1.77312 15.5337C1.52821 15.7755 1.33377 16.0636 1.20105 16.3811C1.06834 16.6987 1 17.0395 1 17.3837C1 17.7279 1.06834 18.0686 1.20105 18.3862C1.33377 18.7038 1.52821 18.9918 1.77312 19.2337ZM18.5231 18.5337C18.2144 18.8277 17.8044 18.9918 17.3781 18.9918C16.9518 18.9918 16.5418 18.8277 16.2331 18.5337L11.2331 13.5337L13.0031 11.7637C13.4347 11.8975 13.8817 11.9748 14.3331 11.9937L18.5831 16.2337C18.8794 16.547 19.0394 16.965 19.0282 17.3961C19.0169 17.8271 18.8353 18.2362 18.5231 18.5337ZM4.10312 4.90367C4.05664 4.8568 4.00134 4.81961 3.94041 4.79422C3.87948 4.76884 3.81412 4.75577 3.74812 4.75577C3.68211 4.75577 3.61676 4.76884 3.55583 4.79422C3.4949 4.81961 3.4396 4.8568 3.39312 4.90367L3.22312 5.07367L2.57312 3.13367L3.13312 2.57367L5.07312 3.22367L4.89312 3.40367C4.8015 3.49713 4.75019 3.62279 4.75019 3.75367C4.75019 3.88454 4.8015 4.0102 4.89312 4.10367L9.00312 8.25367L8.25312 9.00367L4.10312 4.90367ZM2.47312 16.2337L10.1731 8.54367C10.2423 8.47434 10.2897 8.38619 10.3092 8.29019C10.3288 8.19419 10.3197 8.09455 10.2831 8.00367C10.0409 7.38347 9.95252 6.7138 10.0257 6.052C10.0988 5.3902 10.3313 4.75599 10.7031 4.20367C11.0851 3.59135 11.6058 3.07751 12.2231 2.70367C12.8976 2.25881 13.6852 2.01594 14.4931 2.00367C14.7415 2.00263 14.9893 2.02608 15.2331 2.07367L13.1531 4.15367C13.1051 4.19831 13.0669 4.25252 13.0411 4.3128C13.0153 4.37308 13.0023 4.43809 13.0031 4.50367V7.50367C13.0031 7.63628 13.0558 7.76345 13.1496 7.85722C13.2433 7.95099 13.3705 8.00367 13.5031 8.00367H16.5031C16.5687 8.00447 16.6337 7.99154 16.694 7.9657C16.7543 7.93987 16.8085 7.90171 16.8531 7.85367L18.9331 5.77367C19.1221 6.81756 18.8961 7.89399 18.3031 8.77367C17.9236 9.39327 17.4027 9.91416 16.7831 10.2937C16.2308 10.6655 15.5966 10.898 14.9348 10.9711C14.273 11.0443 13.6033 10.9559 12.9831 10.7137C12.8949 10.6813 12.7993 10.6744 12.7073 10.6939C12.6153 10.7133 12.5307 10.7583 12.4631 10.8237L4.77312 18.5237C4.62618 18.6917 4.44628 18.8278 4.24458 18.9235C4.04288 19.0192 3.82367 19.0724 3.60056 19.0799C3.37744 19.0874 3.15516 19.0489 2.94751 18.967C2.73986 18.885 2.55125 18.7612 2.3934 18.6034C2.23554 18.4455 2.11179 18.2569 2.02982 18.0493C1.94786 17.8416 1.90942 17.6194 1.9169 17.3962C1.92437 17.1731 1.9776 16.9539 2.07328 16.7522C2.16896 16.5505 2.30505 16.3706 2.47312 16.2237V16.2337Z"/>
</mask>
<path d="M1.77312 19.2337C2.01564 19.4774 2.30392 19.6707 2.6214 19.8027C2.93888 19.9347 3.27931 20.0026 3.62312 20.0026C3.96693 20.0026 4.30735 19.9347 4.62483 19.8027C4.94231 19.6707 5.23059 19.4774 5.47312 19.2337L10.4731 14.2337L15.4731 19.2337C15.7142 19.4794 16.0022 19.6741 16.32 19.8064C16.6378 19.9387 16.9789 20.0058 17.3231 20.0037C17.8405 20.0026 18.3461 19.8484 18.776 19.5605C19.2059 19.2725 19.5409 18.8637 19.7387 18.3856C19.9366 17.9075 19.9885 17.3815 19.8878 16.874C19.7872 16.3664 19.5385 15.9001 19.1731 15.5337L15.5231 11.8837C16.1361 11.7373 16.7206 11.4906 17.2531 11.1537C18.0029 10.6939 18.6334 10.0634 19.0931 9.31367C19.5455 8.6328 19.8278 7.85335 19.9166 7.04075C20.0053 6.22815 19.8978 5.40612 19.6031 4.64367C19.5734 4.56525 19.5251 4.49519 19.4624 4.43947C19.3997 4.38375 19.3245 4.34402 19.2431 4.32367C19.1593 4.30905 19.0732 4.31409 18.9916 4.33838C18.9101 4.36268 18.8353 4.40556 18.7731 4.46367L16.2931 7.00367H14.0031V4.71367L16.5431 2.17367C16.6012 2.1115 16.6441 2.03669 16.6684 1.95514C16.6927 1.87358 16.6977 1.7875 16.6831 1.70367C16.6628 1.6223 16.623 1.54707 16.5673 1.48438C16.5116 1.4217 16.4415 1.37342 16.3631 1.34367C15.6007 1.04896 14.7786 0.941461 13.966 1.0302C13.1534 1.11894 12.374 1.40134 11.6931 1.85367C10.9433 2.31342 10.3129 2.9439 9.85312 3.69367C9.24857 4.61833 8.95112 5.71014 9.00312 6.81367L6.00312 3.75367L6.39312 3.35367C6.4531 3.29294 6.49654 3.21786 6.5193 3.13559C6.54206 3.05332 6.54337 2.96659 6.52312 2.88367C6.5056 2.8022 6.46673 2.72685 6.4105 2.66535C6.35427 2.60385 6.2827 2.5584 6.20312 2.53367L3.20312 1.53367C3.11396 1.50252 3.0178 1.49725 2.92577 1.51849C2.83374 1.53973 2.74961 1.5866 2.68312 1.65367L1.68312 2.65367C1.6179 2.71926 1.57215 2.80165 1.55097 2.89169C1.52978 2.98173 1.53399 3.07588 1.56312 3.16367L2.56312 6.16367C2.59152 6.24395 2.6392 6.31602 2.70197 6.37356C2.76474 6.4311 2.84068 6.47234 2.92312 6.49367C3.00685 6.51368 3.09438 6.51127 3.17689 6.4867C3.2594 6.46212 3.33398 6.41624 3.39312 6.35367L3.75312 6.00367L7.54312 9.79367L1.77312 15.5337C1.52821 15.7755 1.33377 16.0636 1.20105 16.3811C1.06834 16.6987 1 17.0395 1 17.3837C1 17.7279 1.06834 18.0686 1.20105 18.3862C1.33377 18.7038 1.52821 18.9918 1.77312 19.2337ZM18.5231 18.5337C18.2144 18.8277 17.8044 18.9918 17.3781 18.9918C16.9518 18.9918 16.5418 18.8277 16.2331 18.5337L11.2331 13.5337L13.0031 11.7637C13.4347 11.8975 13.8817 11.9748 14.3331 11.9937L18.5831 16.2337C18.8794 16.547 19.0394 16.965 19.0282 17.3961C19.0169 17.8271 18.8353 18.2362 18.5231 18.5337ZM4.10312 4.90367C4.05664 4.8568 4.00134 4.81961 3.94041 4.79422C3.87948 4.76884 3.81412 4.75577 3.74812 4.75577C3.68211 4.75577 3.61676 4.76884 3.55583 4.79422C3.4949 4.81961 3.4396 4.8568 3.39312 4.90367L3.22312 5.07367L2.57312 3.13367L3.13312 2.57367L5.07312 3.22367L4.89312 3.40367C4.8015 3.49713 4.75019 3.62279 4.75019 3.75367C4.75019 3.88454 4.8015 4.0102 4.89312 4.10367L9.00312 8.25367L8.25312 9.00367L4.10312 4.90367ZM2.47312 16.2337L10.1731 8.54367C10.2423 8.47434 10.2897 8.38619 10.3092 8.29019C10.3288 8.19419 10.3197 8.09455 10.2831 8.00367C10.0409 7.38347 9.95252 6.7138 10.0257 6.052C10.0988 5.3902 10.3313 4.75599 10.7031 4.20367C11.0851 3.59135 11.6058 3.07751 12.2231 2.70367C12.8976 2.25881 13.6852 2.01594 14.4931 2.00367C14.7415 2.00263 14.9893 2.02608 15.2331 2.07367L13.1531 4.15367C13.1051 4.19831 13.0669 4.25252 13.0411 4.3128C13.0153 4.37308 13.0023 4.43809 13.0031 4.50367V7.50367C13.0031 7.63628 13.0558 7.76345 13.1496 7.85722C13.2433 7.95099 13.3705 8.00367 13.5031 8.00367H16.5031C16.5687 8.00447 16.6337 7.99154 16.694 7.9657C16.7543 7.93987 16.8085 7.90171 16.8531 7.85367L18.9331 5.77367C19.1221 6.81756 18.8961 7.89399 18.3031 8.77367C17.9236 9.39327 17.4027 9.91416 16.7831 10.2937C16.2308 10.6655 15.5966 10.898 14.9348 10.9711C14.273 11.0443 13.6033 10.9559 12.9831 10.7137C12.8949 10.6813 12.7993 10.6744 12.7073 10.6939C12.6153 10.7133 12.5307 10.7583 12.4631 10.8237L4.77312 18.5237C4.62618 18.6917 4.44628 18.8278 4.24458 18.9235C4.04288 19.0192 3.82367 19.0724 3.60056 19.0799C3.37744 19.0874 3.15516 19.0489 2.94751 18.967C2.73986 18.885 2.55125 18.7612 2.3934 18.6034C2.23554 18.4455 2.11179 18.2569 2.02982 18.0493C1.94786 17.8416 1.90942 17.6194 1.9169 17.3962C1.92437 17.1731 1.9776 16.9539 2.07328 16.7522C2.16896 16.5505 2.30505 16.3706 2.47312 16.2237V16.2337Z" fill="#3F089D"/>
<path d="M1.77312 19.2337C2.01564 19.4774 2.30392 19.6707 2.6214 19.8027C2.93888 19.9347 3.27931 20.0026 3.62312 20.0026C3.96693 20.0026 4.30735 19.9347 4.62483 19.8027C4.94231 19.6707 5.23059 19.4774 5.47312 19.2337L10.4731 14.2337L15.4731 19.2337C15.7142 19.4794 16.0022 19.6741 16.32 19.8064C16.6378 19.9387 16.9789 20.0058 17.3231 20.0037C17.8405 20.0026 18.3461 19.8484 18.776 19.5605C19.2059 19.2725 19.5409 18.8637 19.7387 18.3856C19.9366 17.9075 19.9885 17.3815 19.8878 16.874C19.7872 16.3664 19.5385 15.9001 19.1731 15.5337L15.5231 11.8837C16.1361 11.7373 16.7206 11.4906 17.2531 11.1537C18.0029 10.6939 18.6334 10.0634 19.0931 9.31367C19.5455 8.6328 19.8278 7.85335 19.9166 7.04075C20.0053 6.22815 19.8978 5.40612 19.6031 4.64367C19.5734 4.56525 19.5251 4.49519 19.4624 4.43947C19.3997 4.38375 19.3245 4.34402 19.2431 4.32367C19.1593 4.30905 19.0732 4.31409 18.9916 4.33838C18.9101 4.36268 18.8353 4.40556 18.7731 4.46367L16.2931 7.00367H14.0031V4.71367L16.5431 2.17367C16.6012 2.1115 16.6441 2.03669 16.6684 1.95514C16.6927 1.87358 16.6977 1.7875 16.6831 1.70367C16.6628 1.6223 16.623 1.54707 16.5673 1.48438C16.5116 1.4217 16.4415 1.37342 16.3631 1.34367C15.6007 1.04896 14.7786 0.941461 13.966 1.0302C13.1534 1.11894 12.374 1.40134 11.6931 1.85367C10.9433 2.31342 10.3129 2.9439 9.85312 3.69367C9.24857 4.61833 8.95112 5.71014 9.00312 6.81367L6.00312 3.75367L6.39312 3.35367C6.4531 3.29294 6.49654 3.21786 6.5193 3.13559C6.54206 3.05332 6.54337 2.96659 6.52312 2.88367C6.5056 2.8022 6.46673 2.72685 6.4105 2.66535C6.35427 2.60385 6.2827 2.5584 6.20312 2.53367L3.20312 1.53367C3.11396 1.50252 3.0178 1.49725 2.92577 1.51849C2.83374 1.53973 2.74961 1.5866 2.68312 1.65367L1.68312 2.65367C1.6179 2.71926 1.57215 2.80165 1.55097 2.89169C1.52978 2.98173 1.53399 3.07588 1.56312 3.16367L2.56312 6.16367C2.59152 6.24395 2.6392 6.31602 2.70197 6.37356C2.76474 6.4311 2.84068 6.47234 2.92312 6.49367C3.00685 6.51368 3.09438 6.51127 3.17689 6.4867C3.2594 6.46212 3.33398 6.41624 3.39312 6.35367L3.75312 6.00367L7.54312 9.79367L1.77312 15.5337C1.52821 15.7755 1.33377 16.0636 1.20105 16.3811C1.06834 16.6987 1 17.0395 1 17.3837C1 17.7279 1.06834 18.0686 1.20105 18.3862C1.33377 18.7038 1.52821 18.9918 1.77312 19.2337ZM18.5231 18.5337C18.2144 18.8277 17.8044 18.9918 17.3781 18.9918C16.9518 18.9918 16.5418 18.8277 16.2331 18.5337L11.2331 13.5337L13.0031 11.7637C13.4347 11.8975 13.8817 11.9748 14.3331 11.9937L18.5831 16.2337C18.8794 16.547 19.0394 16.965 19.0282 17.3961C19.0169 17.8271 18.8353 18.2362 18.5231 18.5337ZM4.10312 4.90367C4.05664 4.8568 4.00134 4.81961 3.94041 4.79422C3.87948 4.76884 3.81412 4.75577 3.74812 4.75577C3.68211 4.75577 3.61676 4.76884 3.55583 4.79422C3.4949 4.81961 3.4396 4.8568 3.39312 4.90367L3.22312 5.07367L2.57312 3.13367L3.13312 2.57367L5.07312 3.22367L4.89312 3.40367C4.8015 3.49713 4.75019 3.62279 4.75019 3.75367C4.75019 3.88454 4.8015 4.0102 4.89312 4.10367L9.00312 8.25367L8.25312 9.00367L4.10312 4.90367ZM2.47312 16.2337L10.1731 8.54367C10.2423 8.47434 10.2897 8.38619 10.3092 8.29019C10.3288 8.19419 10.3197 8.09455 10.2831 8.00367C10.0409 7.38347 9.95252 6.7138 10.0257 6.052C10.0988 5.3902 10.3313 4.75599 10.7031 4.20367C11.0851 3.59135 11.6058 3.07751 12.2231 2.70367C12.8976 2.25881 13.6852 2.01594 14.4931 2.00367C14.7415 2.00263 14.9893 2.02608 15.2331 2.07367L13.1531 4.15367C13.1051 4.19831 13.0669 4.25252 13.0411 4.3128C13.0153 4.37308 13.0023 4.43809 13.0031 4.50367V7.50367C13.0031 7.63628 13.0558 7.76345 13.1496 7.85722C13.2433 7.95099 13.3705 8.00367 13.5031 8.00367H16.5031C16.5687 8.00447 16.6337 7.99154 16.694 7.9657C16.7543 7.93987 16.8085 7.90171 16.8531 7.85367L18.9331 5.77367C19.1221 6.81756 18.8961 7.89399 18.3031 8.77367C17.9236 9.39327 17.4027 9.91416 16.7831 10.2937C16.2308 10.6655 15.5966 10.898 14.9348 10.9711C14.273 11.0443 13.6033 10.9559 12.9831 10.7137C12.8949 10.6813 12.7993 10.6744 12.7073 10.6939C12.6153 10.7133 12.5307 10.7583 12.4631 10.8237L4.77312 18.5237C4.62618 18.6917 4.44628 18.8278 4.24458 18.9235C4.04288 19.0192 3.82367 19.0724 3.60056 19.0799C3.37744 19.0874 3.15516 19.0489 2.94751 18.967C2.73986 18.885 2.55125 18.7612 2.3934 18.6034C2.23554 18.4455 2.11179 18.2569 2.02982 18.0493C1.94786 17.8416 1.90942 17.6194 1.9169 17.3962C1.92437 17.1731 1.9776 16.9539 2.07328 16.7522C2.16896 16.5505 2.30505 16.3706 2.47312 16.2237V16.2337Z" stroke="#3F089D" stroke-width="0.6" mask="url(#path-1-outside-1_1_540)"/>
</svg>
