<svg width="27" height="34" viewBox="0 0 27 34" fill="none" xmlns="http://www.w3.org/2000/svg">
<path d="M9.27649 12.7501C11.1375 12.7501 12.6515 11.5108 12.6515 9.98759C12.6515 9.87487 12.607 9.76677 12.5279 9.68707C12.4488 9.60737 12.3415 9.56259 12.2296 9.56259C12.1177 9.56259 12.0104 9.60737 11.9313 9.68707C11.8522 9.76677 11.8077 9.87487 11.8077 9.98759C11.8077 10.9335 10.8939 11.7208 9.69836 11.873V10.5242C9.74299 10.5017 9.7858 10.4758 9.8264 10.4466L10.5424 9.93191C10.6738 9.83586 10.7805 9.70964 10.8538 9.56373C10.9272 9.41781 10.9649 9.2564 10.9639 9.09286C10.9639 8.53175 10.5281 8.07525 9.99246 8.07525H8.56046C8.02479 8.07525 7.58899 8.53175 7.58899 9.09286C7.58803 9.2564 7.62577 9.41781 7.69908 9.56373C7.77239 9.70964 7.87916 9.83586 8.01055 9.93191L8.72652 10.4466C8.76713 10.4758 8.80996 10.5017 8.85461 10.5242V11.873C7.65907 11.7208 6.74524 10.9335 6.74524 9.98759C6.74524 9.87487 6.70079 9.76677 6.62167 9.68707C6.54256 9.60737 6.43525 9.56259 6.32336 9.56259C6.21148 9.56259 6.10417 9.60737 6.02505 9.68707C5.94594 9.76677 5.90149 9.87487 5.90149 9.98759C5.90149 11.5108 7.41549 12.7501 9.27649 12.7501ZM8.50077 9.23991C8.47885 9.22239 8.4613 9.19996 8.4495 9.1744C8.43771 9.14885 8.43201 9.12087 8.43284 9.0927C8.43284 9.00185 8.49138 8.92509 8.56057 8.92509H9.99262C10.0619 8.92509 10.1203 9.00185 10.1203 9.0927C10.1212 9.12087 10.1155 9.14885 10.1037 9.17441C10.0919 9.19997 10.0743 9.22239 10.0524 9.23991L9.3364 9.75458C9.31925 9.76789 9.29821 9.77511 9.27657 9.77511C9.25492 9.77511 9.23389 9.76789 9.21674 9.75458L8.50077 9.23991Z" fill="#EC0707"/>
<path d="M11.8077 8.07508C12.0407 8.07508 12.2296 7.8848 12.2296 7.65008C12.2296 7.41536 12.0407 7.22508 11.8077 7.22508C11.5747 7.22508 11.3859 7.41536 11.3859 7.65008C11.3859 7.8848 11.5747 8.07508 11.8077 8.07508Z" fill="#EC0707"/>
<path d="M6.74524 8.07508C6.97823 8.07508 7.16711 7.8848 7.16711 7.65008C7.16711 7.41536 6.97823 7.22508 6.74524 7.22508C6.51224 7.22508 6.32336 7.41536 6.32336 7.65008C6.32336 7.8848 6.51224 8.07508 6.74524 8.07508Z" fill="#EC0707"/>
<path d="M20.25 16.575C20.5838 16.575 20.91 16.4753 21.1875 16.2885C21.465 16.1017 21.6813 15.8362 21.809 15.5256C21.9368 15.2149 21.9702 14.8731 21.9051 14.5434C21.84 14.2136 21.6792 13.9107 21.4432 13.6729C21.2072 13.4352 20.9066 13.2733 20.5792 13.2077C20.2519 13.1421 19.9126 13.1758 19.6042 13.3044C19.2959 13.4331 19.0323 13.651 18.8469 13.9306C18.6615 14.2101 18.5625 14.5388 18.5625 14.875C18.563 15.3257 18.741 15.7578 19.0573 16.0765C19.3737 16.3952 19.8026 16.5745 20.25 16.575ZM20.25 14.025C20.4169 14.025 20.58 14.0749 20.7188 14.1683C20.8575 14.2617 20.9657 14.3944 21.0295 14.5497C21.0934 14.7051 21.1101 14.876 21.0775 15.0408C21.045 15.2057 20.9646 15.3572 20.8466 15.4761C20.7286 15.5949 20.5783 15.6759 20.4146 15.7087C20.2509 15.7415 20.0813 15.7247 19.9271 15.6603C19.7729 15.596 19.6412 15.487 19.5484 15.3473C19.4557 15.2075 19.4063 15.0431 19.4063 14.875C19.4065 14.6497 19.4955 14.4336 19.6537 14.2743C19.8118 14.1149 20.0263 14.0253 20.25 14.025Z" fill="#EC0707"/>
<path d="M26.1563 17.4251H23.625V11.9001C23.6251 11.8129 23.5984 11.7278 23.5485 11.6565L20.5954 7.40648C20.5565 7.35049 20.5048 7.30478 20.4446 7.27322C20.3845 7.24166 20.3176 7.22519 20.2498 7.22519C20.182 7.22519 20.1151 7.24166 20.055 7.27322C19.9948 7.30478 19.9431 7.35049 19.9042 7.40648L16.9511 11.6565C16.9014 11.7278 16.8748 11.8129 16.875 11.9001V14.5596C16.2973 13.7772 15.5265 13.128 14.5748 12.6273C15.5145 11.5146 16.0265 10.0689 16.0265 8.50005C16.0287 7.80684 15.9244 7.11747 15.7171 6.45644C16.128 6.23794 16.482 5.92484 16.7501 5.5426C17.0183 5.16036 17.1932 4.71977 17.2605 4.25663C17.3279 3.79349 17.2858 3.32088 17.1377 2.87721C16.9896 2.43354 16.7397 2.03134 16.4082 1.7033C16.0768 1.37526 15.6732 1.13063 15.2302 0.989309C14.7873 0.847984 14.3174 0.813949 13.859 0.889969C13.4005 0.965989 12.9663 1.14992 12.5917 1.42681C12.2171 1.7037 11.9126 2.06574 11.703 2.48349C10.9171 2.23956 10.0988 2.11868 9.27652 2.12506C8.4543 2.11868 7.63598 2.23958 6.85021 2.48354C6.64062 2.06579 6.33614 1.70375 5.96152 1.42685C5.5869 1.14996 5.15271 0.966021 4.69424 0.889994C4.23577 0.813968 3.76596 0.847997 3.323 0.989316C2.88005 1.13064 2.47644 1.37526 2.14499 1.70329C1.81355 2.03133 1.56361 2.43353 1.41551 2.87719C1.2674 3.32086 1.2253 3.79347 1.29263 4.25661C1.35997 4.71975 1.53483 5.16034 1.80301 5.54259C2.07118 5.92483 2.42511 6.23793 2.83602 6.45644C2.62874 7.11747 2.52434 7.80684 2.52652 8.50005C2.52652 10.0689 3.03878 11.5147 3.97824 12.6273C1.92434 13.7079 0.713353 15.4804 0.464921 17.7878C0.464394 17.7931 0.463866 17.7984 0.463497 17.8037L0.422945 18.3871C0.4216 18.4063 0.4216 18.4256 0.422945 18.4447C0.456676 18.9422 0.634149 19.4189 0.933493 19.816C1.23284 20.2131 1.64097 20.5133 2.1076 20.6796C1.82925 21.2543 1.68554 21.8856 1.68751 22.5251C1.68751 24.6341 3.20152 26.35 5.06251 26.35C6.06447 26.35 6.96533 25.8522 7.58401 25.0638C8.10459 25.35 8.68818 25.5 9.28126 25.5C9.87435 25.5 10.4579 25.35 10.9785 25.0638C11.5972 25.8522 12.4981 26.35 13.5 26.35C14.8224 26.35 15.9689 25.4833 16.5222 24.225H26.1563C26.2681 24.225 26.3755 24.1803 26.4546 24.1006C26.5337 24.0209 26.5781 23.9128 26.5781 23.8001V17.8501C26.5781 17.7373 26.5337 17.6292 26.4546 17.5495C26.3755 17.4698 26.2681 17.4251 26.1563 17.4251ZM20.25 8.39115L22.3929 11.4751H18.1071L20.25 8.39115ZM17.7188 12.3251H22.7813V17.4251H18.0395C17.9731 16.9908 17.8656 16.5638 17.7188 16.1501V12.3251ZM16.4535 20.6766C16.851 20.5329 17.2068 20.2918 17.4889 19.9751H18.1406V21.6751H16.7899C16.7209 21.329 16.6078 20.9935 16.4535 20.6766ZM17.2484 17.8716L17.2863 18.4163C17.256 18.776 17.113 19.1168 16.8779 19.3893C16.6428 19.6618 16.3279 19.8521 15.9785 19.9326C15.4497 19.2836 14.7256 18.8429 13.913 18.7299C13.8361 17.0013 13.2578 15.4062 12.3128 14.2896C12.9086 14.036 13.4611 13.6895 13.95 13.263C15.8824 14.1955 17.0211 15.7831 17.2484 17.8713V17.8716ZM14.339 1.70006C14.8025 1.6999 15.2532 1.85357 15.6214 2.13731C15.9895 2.42104 16.2547 2.81904 16.3758 3.26978C16.4969 3.72052 16.4673 4.1989 16.2915 4.63098C16.1157 5.06306 15.8035 5.42477 15.4032 5.6602C15.1087 5.03852 14.709 4.47325 14.2219 3.98974C13.7194 3.49316 13.1353 3.08793 12.4956 2.79199C12.6787 2.46132 12.9461 2.18582 13.2701 1.99389C13.5942 1.80196 13.9631 1.70053 14.339 1.70006ZM2.10464 3.82505C2.10452 3.35427 2.25958 2.89677 2.5455 2.52438C2.83142 2.15198 3.23199 1.88578 3.68435 1.76757C4.1367 1.64935 4.61521 1.68581 5.04477 1.87123C5.47432 2.05664 5.8306 2.38051 6.05766 2.79199C5.41792 3.0879 4.83384 3.49314 4.3313 3.98974C3.84425 4.47322 3.44452 5.03847 3.15005 5.66015C2.83219 5.47254 2.56851 5.20452 2.38514 4.88263C2.20177 4.56075 2.10508 4.19618 2.10464 3.82505ZM4.92293 4.59579C5.99322 3.53552 7.49884 2.97505 9.27652 2.97505C11.0542 2.97505 12.5598 3.53552 13.6302 4.59585C14.6314 5.58769 15.1828 6.9742 15.1828 8.50005C15.1828 10.0259 14.6314 11.4124 13.6302 12.4043C12.5598 13.4646 11.0544 14.0251 9.27652 14.0251C7.49868 14.0251 5.99322 13.4646 4.92293 12.4043C3.92166 11.4124 3.37027 10.0259 3.37027 8.50005C3.37027 6.9742 3.92166 5.58769 4.92293 4.59579ZM1.26675 18.4162L1.30461 17.8715C1.53195 15.783 2.67043 14.1955 4.60299 13.2628C5.09408 13.6912 5.64927 14.0388 6.24803 14.2927C5.30583 15.4097 4.72681 17.0094 4.64955 18.7297C3.83623 18.8427 3.11134 19.2844 2.58247 19.9341C2.23139 19.855 1.9145 19.6652 1.67788 19.3922C1.44126 19.1192 1.29723 18.7773 1.26675 18.4162ZM5.06251 25.5C3.66674 25.5 2.53126 24.1655 2.53126 22.5251C2.53126 20.8846 3.66674 19.5501 5.06251 19.5501C6.45829 19.5501 7.59376 20.8846 7.59376 22.5251C7.59376 24.1655 6.45829 25.5 5.06251 25.5ZM9.28126 24.6501C8.84645 24.6486 8.41829 24.5424 8.03251 24.3403C8.30108 23.7735 8.43951 23.1531 8.43751 22.5251C8.43751 20.5818 7.15201 18.9736 5.4943 18.7325C5.57541 17.075 6.16651 15.5598 7.11567 14.5953C7.82033 14.7853 8.54707 14.8794 9.27652 14.8751C10.0084 14.8795 10.7376 14.7848 11.4445 14.5935C12.3967 15.5578 12.9878 17.0669 13.0684 18.7326C11.4106 18.9735 10.125 20.5817 10.125 22.5251C10.123 23.1531 10.2614 23.7735 10.53 24.3403C10.1442 24.5424 9.71607 24.6486 9.28126 24.6501ZM13.5 25.5C12.1042 25.5 10.9688 24.1655 10.9688 22.5251C10.9688 20.8846 12.1042 19.5501 13.5 19.5501C14.8958 19.5501 16.0313 20.8846 16.0313 22.5251C16.0313 24.1655 14.8958 25.5 13.5 25.5ZM16.875 22.5251H18.5625C18.6744 22.5251 18.7817 22.4803 18.8608 22.4006C18.9399 22.3209 18.9844 22.2128 18.9844 22.1001V19.5501C18.9844 19.4373 18.9399 19.3292 18.8608 19.2495C18.7817 19.1698 18.6744 19.1251 18.5625 19.1251H17.9907C18.0681 18.9058 18.115 18.6769 18.1302 18.4447C18.1315 18.4256 18.1315 18.4063 18.1302 18.3871L18.1224 18.2751H19.8281V23.3751H16.7899C16.8464 23.0953 16.8749 22.8105 16.875 22.5251ZM25.7344 23.3751H20.6719V18.2751H25.7344V23.3751Z" fill="#EC0707"/>
<path d="M21.9375 22.525H24.4687C24.5406 22.525 24.6114 22.5064 24.6742 22.4712C24.737 22.4359 24.7898 22.385 24.8276 22.3234C24.8654 22.2618 24.8869 22.1914 24.8902 22.1191C24.8934 22.0467 24.8782 21.9747 24.846 21.9099L23.5804 19.3599C23.5454 19.2893 23.4915 19.2299 23.4249 19.1885C23.3582 19.147 23.2814 19.125 23.2031 19.125C23.1248 19.125 23.048 19.147 22.9813 19.1885C22.9147 19.2299 22.8608 19.2893 22.8258 19.3599L21.5602 21.9099C21.528 21.9747 21.5128 22.0467 21.5161 22.1191C21.5193 22.1914 21.5408 22.2618 21.5786 22.3234C21.6164 22.385 21.6692 22.4359 21.732 22.4712C21.7949 22.5064 21.8656 22.525 21.9375 22.525ZM23.2031 20.5003L23.7861 21.675H22.6201L23.2031 20.5003Z" fill="#EC0707"/>
</svg>
