<svg width="28" height="14" viewBox="0 0 28 14" fill="none" xmlns="http://www.w3.org/2000/svg">
<path d="M23.1481 6.98749C24.631 6.98749 25.8668 8.50483 25.8668 10.3383C25.8668 12.1717 24.631 13.689 23.1481 13.689C21.6652 13.689 20.4294 12.1717 20.4294 10.3383C20.4788 8.50483 21.6652 6.98749 23.1481 6.98749ZM23.1481 12.0453C23.8896 12.0453 24.4827 11.2866 24.4827 10.3383C24.4827 9.38994 23.8896 8.63127 23.1481 8.63127C22.4066 8.63127 21.8135 9.38994 21.8135 10.3383C21.8135 11.2866 22.4066 12.0453 23.1481 12.0453ZM23.1481 9.13705C23.6918 9.13705 24.1367 9.70605 24.1367 10.3383C24.1367 11.0337 23.6918 11.5395 23.1481 11.5395C22.6044 11.5395 22.1595 10.9705 22.1595 10.3383C22.1595 9.70605 22.6044 9.13705 23.1481 9.13705ZM23.1481 10.9705C23.4447 10.9705 23.6424 10.7176 23.6424 10.3383C23.6424 9.95894 23.4447 9.70605 23.1481 9.70605C22.8515 9.70605 22.6538 9.95894 22.6538 10.3383C22.6538 10.7176 22.9009 10.9705 23.1481 10.9705ZM6.29227 3.69994C6.24284 3.82638 6.14398 3.95283 6.19341 4.07927C6.24284 4.14249 6.3417 4.26894 6.44057 4.26894C6.78658 4.33216 9.15925 4.4586 9.75241 4.4586C10.395 4.4586 10.5927 4.33216 10.5927 4.20571C10.6422 4.07927 10.6422 3.57349 10.5433 2.49872C10.4939 2.05616 10.2962 2.05616 10.1973 1.99294C10.1479 1.99294 10.0984 1.99294 9.99957 1.99294C9.50526 1.99294 8.86266 2.11938 8.41779 2.24583C7.87405 2.43549 6.53943 3.19416 6.29227 3.69994ZM1.44808 7.30361C2.53555 6.29205 2.88156 6.41849 3.67245 5.09083C3.91961 4.64827 4.21619 1.55038 6.44057 0.728492C8.71437 -0.0933971 12.7182 -0.219841 14.3495 0.34916C16.0301 0.981382 16.3267 1.99294 16.6727 2.94127C17.0681 3.82638 17.5624 3.8896 18.3039 4.01605C19.0454 4.14249 22.8515 4.07927 23.8896 4.39538C24.9276 4.71149 25.9656 5.53338 26.1634 6.54494C26.3611 7.49327 26.1634 8.25194 26.6082 8.88416C27.0531 9.51638 27.844 9.26349 27.5969 9.83249C27.3003 10.4015 27.7451 10.6544 26.1139 10.5279C26.1139 10.4647 26.1139 10.4647 26.1139 10.4015C26.1139 8.37838 24.7793 6.7346 23.1975 6.7346C22.0606 6.7346 21.072 7.55649 20.5777 8.75772C19.9351 10.3383 19.1442 11.2234 18.3039 11.2234C15.2886 11.1602 13.6574 11.3498 11.3342 11.2866C9.01095 11.2234 7.03373 10.7176 7.03373 10.7176L4.41391 9.70605C4.41391 9.70605 3.96904 9.89572 2.73327 10.3383C1.54694 10.7808 0.0640214 11.0969 0.0145908 10.2751C-0.0842703 9.38994 0.311174 8.31516 1.44808 7.30361ZM12.3228 4.90116C12.6688 4.96438 14.9921 5.0276 15.4369 5.0276C15.7829 5.0276 16.1784 4.83794 16.3267 4.39538C16.3761 4.20572 16.4255 3.82638 16.129 3.44705C16.0301 3.3206 15.8818 3.13094 15.7829 2.94127C15.3381 2.30905 14.8438 1.6136 14.3989 1.55038C14.1517 1.48716 13.4597 1.42394 12.916 1.42394C12.6194 1.42394 12.0757 1.42394 12.0262 1.92972C11.7791 4.77472 12.1745 4.83794 12.3228 4.90116ZM5.74854 4.39538C5.8474 4.71149 6.09455 4.90116 6.44057 4.96438C6.83601 5.0276 9.25811 5.15405 9.80184 5.15405C10.1973 5.15405 10.9882 5.15405 11.1365 4.4586C11.1365 4.39538 11.2353 4.07927 11.1365 2.49872C11.087 1.86649 10.7905 1.48716 10.3456 1.42394C9.80184 1.36071 9.01096 1.55038 8.46722 1.67683C7.77519 1.86649 6.24284 2.62516 5.89683 3.44705C5.60025 3.82638 5.64968 4.14249 5.74854 4.39538ZM12.5205 2.05616C12.4711 2.94127 12.4217 3.95283 12.5205 4.26894C13.0148 4.33216 14.9921 4.39538 15.4864 4.39538C15.7335 4.39538 15.8818 4.26894 15.9312 4.20571C15.9312 4.14249 15.9312 4.07927 15.8324 3.95283C15.7335 3.82638 15.5852 3.63672 15.4864 3.44705C15.1403 2.94127 14.6955 2.30905 14.3989 2.24583C14.1517 2.1826 13.4597 2.11938 12.9654 2.11938C12.6688 1.99294 12.57 2.05616 12.5205 2.05616ZM5.15537 10.2751L4.66106 10.0854C4.66106 10.1486 4.61163 10.2751 4.61163 10.3383C4.61163 11.0337 5.05651 11.5395 5.60025 11.5395C5.99569 11.5395 6.39113 11.2234 6.53943 10.7808L6.04512 10.5912C5.94626 10.7808 5.79797 10.9073 5.60025 10.9073C5.30366 10.9073 5.10594 10.6544 5.10594 10.2751C5.15537 10.3383 5.15537 10.2751 5.15537 10.2751ZM2.93099 10.5279C2.98043 12.2982 4.16676 13.7523 5.64968 13.7523C6.88544 13.7523 7.92348 12.6775 8.2695 11.2866C7.47861 11.1602 6.93487 11.0337 6.93487 11.0337C6.73715 11.6659 6.24284 12.1085 5.64968 12.1085C4.90822 12.1085 4.31505 11.3498 4.31505 10.4015C4.31505 10.275 4.31505 10.1486 4.36448 10.0222C4.16676 10.0854 3.72188 10.2118 2.93099 10.5279Z" fill="#1CD18B"/>
</svg>
